<svg width="89" height="90" viewBox="0 0 89 90" fill="none" xmlns="http://www.w3.org/2000/svg">
<g clip-path="url(#clip0_202_238)">
<path d="M44.4607 9.83357C43.9348 9.8309 43.6455 10.1896 43.5645 10.6097L41.3902 17.945C36.2135 18.5254 31.3075 20.5622 27.2419 23.819C24.9831 22.5926 22.7252 21.36 20.4646 20.1407C20.0463 19.9155 19.6796 19.9324 19.3414 20.2733C19.0023 20.6141 19.0984 21.1161 19.2898 21.4774L22.9112 28.148C19.6376 32.2186 17.5898 37.1365 17.0069 42.3275C14.5381 43.0599 12.0656 43.7862 9.59944 44.5231C9.14554 44.6593 8.89901 44.9307 8.8999 45.4113C8.90079 45.8919 9.32355 46.1794 9.71515 46.2995L17.0034 48.4587C17.5698 53.6612 19.6071 58.5945 22.8765 62.6809C21.6438 64.9522 20.404 67.2234 19.1776 69.4965C18.9525 69.9148 18.9694 70.2797 19.3111 70.6188C19.6511 70.957 20.1531 70.8627 20.5144 70.6722L27.2223 67.0312C31.2916 70.2994 36.2062 72.3433 41.3929 72.9248C42.1245 75.3945 42.8525 77.8678 43.5894 80.334C43.7256 80.7879 43.9971 81.0345 44.4777 81.0336C44.9583 81.0327 45.2457 80.6099 45.3659 80.2183L47.525 72.9301C52.7392 72.3613 57.6819 70.3133 61.7704 67.0276L68.5059 70.6855C68.9945 70.9347 69.3247 70.9784 69.6985 70.6081C70.0723 70.2379 70.0242 69.7786 69.7848 69.4244L66.118 62.6666C69.3805 58.5845 71.415 53.6587 71.984 48.464L79.3114 46.2924C79.8329 46.1233 80.0972 45.9213 80.0999 45.3944C80.1026 44.8675 79.7439 44.5792 79.3238 44.4982L71.9635 42.3168C71.3821 37.1357 69.3431 32.2257 66.0833 28.1569L69.7234 21.4543C69.9717 20.9648 70.0153 20.6355 69.6451 20.2608C69.5683 20.1785 69.4761 20.1121 69.3736 20.0655C69.2711 20.0189 69.1604 19.993 69.0479 19.9894C68.8378 19.99 68.6331 20.0553 68.4614 20.1763L61.7454 23.8226C57.6628 20.5451 52.7293 18.5011 47.525 17.9308L45.3588 10.6221C45.1897 10.1006 44.9876 9.83624 44.4607 9.83357ZM44.4599 13.5502V41.1758C43.7403 41.1837 43.0343 41.3732 42.4075 41.7267L37.9762 36.1126L42.6167 19.9653L43.2397 17.7928L44.4599 13.5502ZM48.1845 20.1576C52.3658 20.7623 56.3303 22.4003 59.7189 24.9235L50.9996 29.6565L48.1845 20.1576ZM40.729 20.1798L37.9308 29.6201C35.0463 28.0519 32.1601 26.4899 29.2747 24.9226C32.6426 22.4202 36.5779 20.7908 40.729 20.1798ZM21.9384 22.8721L35.8242 36.7294L35.8171 36.7498L30.5127 38.3234L25.1833 28.7176L24.0949 26.7551L21.9384 22.8721ZM67.0151 22.8881L64.0399 25.8643L62.5509 27.3523L53.1596 36.7445L53.0929 36.7249L51.5318 31.4597L61.2016 26.1063L62.3658 25.4638L63.1579 25.0241L67.0151 22.8881ZM64.9877 30.1754C67.5034 33.5506 69.1411 37.4979 69.7537 41.6626L60.2769 38.8538L64.9877 30.1754ZM24.013 30.1825L28.7211 38.8547C25.558 39.7892 22.3985 40.7308 19.2364 41.6671C19.8522 37.5022 21.4936 33.5557 24.013 30.1825ZM53.7319 38.8858L69.9673 43.5494L72.1148 44.1671L76.3824 45.3935H48.7568C48.749 44.6663 48.5557 43.9532 48.1952 43.3216L53.7319 38.8858ZM40.243 45.3935L40.2413 45.4336C40.2413 46.1438 40.4193 46.8424 40.7583 47.4663L35.1549 51.8781L29.6004 50.2867L19.0272 47.2607V47.259L16.8574 46.6377L12.5738 45.4113L40.243 45.3935ZM69.7768 49.1173C69.1725 53.2949 67.5367 57.2561 65.0171 60.6428L60.2885 51.9297L69.7768 49.1173ZM19.2337 49.1199L28.7095 51.9279C27.1298 54.8338 25.5571 57.7414 23.9783 60.6472C21.4641 57.2584 19.8336 53.2967 19.2337 49.1199ZM46.554 49.1618L50.9684 54.6896L49.3638 60.293L46.3244 70.9054L45.7032 73.0761L44.4768 77.3596L44.459 49.6896C45.2083 49.6913 45.9862 49.4955 46.554 49.1618ZM58.4827 52.4637L63.8316 62.1291L64.9156 64.0862L67.0703 67.979L64.0674 64.9753L62.5785 63.4872L53.1382 54.047L58.4827 52.4637ZM35.8099 54.0942L37.3924 59.4306L27.7928 64.7564L25.8286 65.8457L21.9081 68.0218L35.8099 54.0942ZM51.0058 61.1839L59.7456 65.9303C56.3496 68.458 52.3759 70.0972 48.1854 70.6989L51.0058 61.1839ZM37.9228 61.2213C38.8573 64.3808 39.7971 67.5376 40.7325 70.6962C36.5713 70.0808 32.6281 68.4416 29.2569 65.9258L37.9228 61.2213Z" fill="#FFF8F0"/>
<path d="M40.94 8.05359V0.933594H42.7031L46.3761 5.68886V0.933594H48.06V8.05359H46.2417L42.6239 3.41046V8.05359H40.94ZM40.94 87.5724L42.6604 87.4416C42.7636 87.8949 42.9725 88.2281 43.2869 88.4411C43.6055 88.6535 44.0336 88.7597 44.5712 88.7597C45.1408 88.7597 45.5689 88.6659 45.8555 88.4784C46.1462 88.2874 46.2916 88.0652 46.2916 87.8118C46.2916 87.6493 46.2299 87.5116 46.1064 87.3989C45.9872 87.2832 45.7763 87.1832 45.4737 87.0989C45.266 87.0426 44.7943 86.9423 44.0586 86.7981C43.1104 86.6136 42.4453 86.3866 42.0632 86.1173C41.525 85.7387 41.2559 85.2774 41.2559 84.7333C41.2559 84.3833 41.3814 84.0563 41.6324 83.7525C41.8876 83.4458 42.2522 83.2126 42.7262 83.053C43.2039 82.8928 43.7794 82.8127 44.4528 82.8127C45.5511 82.8127 46.377 83.0023 46.9306 83.3814C47.4883 83.76 47.7811 84.2652 47.809 84.8971L46.0406 84.9585C45.9652 84.6049 45.8021 84.3515 45.5511 84.1984C45.3043 84.0418 44.9319 83.9635 44.4341 83.9635C43.9203 83.9635 43.518 84.0465 43.2273 84.2127C43.0404 84.3189 42.9469 84.4613 42.9469 84.6399C42.9469 84.8019 43.0345 84.941 43.2095 85.0573C43.4326 85.2038 43.9743 85.3569 44.8346 85.5165C45.695 85.6767 46.3298 85.8429 46.7392 86.0149C47.154 86.1834 47.4768 86.4163 47.7076 86.7136C47.9425 87.0079 48.06 87.3725 48.06 87.8074C48.06 88.2014 47.9206 88.5704 47.6417 88.9145C47.3628 89.2587 46.9686 89.5153 46.4589 89.6844C45.9492 89.8505 45.3144 89.9336 44.5543 89.9336C43.4465 89.9336 42.596 89.7333 42.0027 89.3328C41.4093 88.9294 41.0551 88.3426 40.94 87.5724ZM81.88 48.9936V41.8736H88.822V43.0778H83.7704V44.6566H88.4696V45.8563H83.7704V47.7939H89V48.9936H81.88ZM1.29584 48.9936L0 41.8736H1.1214L1.93931 46.7641L2.93077 41.8736H4.23373L5.18514 46.8469L6.0164 41.8736H7.12L5.8028 48.9936H4.64046L3.56 43.6705L2.4831 48.9927L1.29584 48.9936Z" fill="#FFF8F0"/>
</g>
<defs>
<clipPath id="clip0_202_238">
<rect width="89" height="89" fill="white" transform="translate(0 0.933594)"/>
</clipPath>
</defs>
</svg>
