<svg xmlns="http://www.w3.org/2000/svg" viewBox="0 0 800 500">
  <g transform="translate(260, 150)">
    <path d="M20,30 C25,28 30,32 35,30 C40,28 45,32 50,30 C55,28 60,32 65,30 C70,28 75,32 80,30 C85,28 90,32 95,30 C100,28" stroke="#f5f2e9" stroke-width="5" fill="none" stroke-linecap="round"></path>
    <path d="M20,60 C25,58 30,62 35,60 C40,58 45,62 50,60 C55,58 60,62 65,60 C70,58 75,62 80,60 C85,58 90,62 95,60 C100,58" stroke="#f5f2e9" stroke-width="5" fill="none" stroke-linecap="round"></path>
    <path d="M20,90 C25,88 30,92 35,90 C40,88 45,92 50,90 C55,88 60,92 65,90 C70,88 75,92 80,90 C85,88 90,92 95,90 C100,88" stroke="#f5f2e9" stroke-width="5" fill="none" stroke-linecap="round"></path>
  </g>
</svg>