<svg
  width="85"
  height="85"
  viewBox="0 0 85 85"
  fill="none"
  xmlns="http://www.w3.org/2000/svg"
>
  <circle cx="42.5" cy="42.5" r="42.5" fill="#1E1E24" />
  <path
    d="M47.5437 52.4188C47.7175 52.2453 47.8554 52.0393 47.9495 51.8125C48.0436 51.5856 48.092 51.3425 48.092 51.0969C48.092 50.8514 48.0436 50.6082 47.9495 50.3814C47.8554 50.1546 47.7175 49.9485 47.5437 49.7751L40.2687 42.5001L47.5437 35.2251C47.8943 34.8745 48.0912 34.399 48.0912 33.9032C48.0912 33.4074 47.8943 32.9319 47.5437 32.5813C47.1931 32.2307 46.7176 32.0338 46.2218 32.0338C45.726 32.0338 45.2505 32.2307 44.9 32.5813L36.2937 41.1876C36.1199 41.361 35.982 41.5671 35.8879 41.7939C35.7938 42.0207 35.7454 42.2639 35.7454 42.5094C35.7454 42.755 35.7938 42.9981 35.8879 43.225C35.982 43.4518 36.1199 43.6578 36.2937 43.8313L44.9 52.4376C45.6125 53.1501 46.8125 53.1501 47.5437 52.4188Z"
    fill="#FFF8F0"
  />
</svg>
