<svg width="253" height="285" viewBox="0 0 253 285" fill="none" xmlns="http://www.w3.org/2000/svg">
<g filter="url(#filter0_d_197_69)">
<path d="M158.056 25.8967L157.704 43.4139L152.376 47.096L152.286 47.1742L151.375 50.575L152.279 49.625C152.711 49.1996 153.247 48.8949 153.834 48.7414C154.421 48.5878 155.038 48.5908 155.624 48.7499C156.9 49.0918 157.646 52.5617 157.126 54.5005C157.059 54.7868 156.929 55.0546 156.745 55.2841C156.679 55.3461 156.596 55.3885 156.507 55.4066C156.417 55.4247 156.325 55.4179 156.239 55.387C155.25 55.122 155.187 54.594 155.085 53.9535C154.983 53.3131 154.922 52.6494 153.965 52.393C152.115 51.8973 151.055 55.5988 150.944 56.012L150.859 56.3298L152.868 56.8682C152.6 58.1249 152.18 59.307 151.955 59.3828L151.53 59.4392C151 59.5017 150.335 59.5618 150.071 60.5471C150.01 60.7903 149.998 61.0431 150.035 61.2911C150.072 61.5391 150.158 61.7775 150.288 61.9925C150.418 62.2076 150.589 62.3952 150.791 62.5445C150.993 62.6938 151.223 62.802 151.467 62.8629L151.882 62.974L152.154 62.9788C152.543 62.9932 152.931 63.0401 153.313 63.119C153.501 63.1523 153.67 63.2585 153.78 63.4147C153.857 63.6396 153.763 63.9892 153.467 64.455C152.357 66.3035 151.049 65.9531 149.741 65.6027C149.571 65.5703 149.412 65.4937 149.28 65.3807C149.148 65.2677 149.049 65.1222 148.991 64.9588C148.946 64.7912 148.857 64.6384 148.734 64.5157C148.611 64.393 148.458 64.3047 148.289 64.2598L148.002 64.1829C147.884 64.1692 147.763 64.1794 147.648 64.213C147.534 64.2467 147.427 64.303 147.335 64.3787C147.292 64.267 147.228 64.1648 147.146 64.0783C147.063 63.9918 146.964 63.9228 146.854 63.8752L146.567 63.7983C146.399 63.7532 146.222 63.7529 146.054 63.7976C145.886 63.8423 145.733 63.9303 145.61 64.0529C145.476 64.1587 145.317 64.2283 145.149 64.2547C144.98 64.2811 144.807 64.2634 144.647 64.2035C143.339 63.8531 142.031 63.5027 141.994 61.3466C141.971 60.7953 142.064 60.4457 142.243 60.2892C142.417 60.2093 142.616 60.2014 142.796 60.267C143.166 60.3895 143.525 60.5427 143.87 60.725L144.108 60.857L144.522 60.9681C145.005 61.1067 145.523 61.0507 145.964 60.8121C146.406 60.5734 146.735 60.1713 146.881 59.6925C147.145 58.7072 146.599 58.3223 146.171 58.0034L145.863 57.7505C145.674 57.5635 145.902 56.3302 146.298 55.1077L148.307 55.6461L148.392 55.3283C148.503 54.9151 149.436 51.1794 147.586 50.6837C146.629 50.4273 146.203 50.9946 145.835 51.4751C145.467 51.9556 145.108 52.4043 144.119 52.1394C144.029 52.1233 143.946 52.0829 143.877 52.0225C143.809 51.9622 143.759 51.8842 143.732 51.7973C143.688 51.5065 143.709 51.2095 143.794 50.9282C144.313 48.9894 146.694 46.357 147.97 46.6989C148.557 46.8541 149.093 47.1603 149.525 47.5868C149.957 48.0133 150.268 48.5453 150.429 49.1293L150.729 50.4358L151.648 47.0033L151.61 46.8908L148.837 41.038L157.291 25.6916L158.056 25.8967ZM146.994 65.65C147.04 65.9074 147.152 66.1486 147.319 66.3503C147.476 66.5287 148.439 67.9108 149.105 68.8726L145.661 72.4123L145.571 72.4905L145.537 72.6177L141.976 129.029L141.944 129.531L142.404 129.348L198.199 110.574L153.976 149.311L153.587 149.615L154.04 149.839L206.335 175.638L206.692 175.836L206.795 175.454C207.423 173.238 209.28 171.794 210.906 172.23C212.533 172.666 212.939 173.83 213.017 175.452L213.038 175.628L213.181 175.735C216.81 177.627 217.979 178.621 218.166 178.944C217.843 179.13 216.278 179.358 212.038 179.107L211.878 179.065L211.772 179.206C210.906 180.269 209.753 180.743 208.701 180.461C207.648 180.179 206.341 178.296 206.622 176.226L206.716 175.876L206.38 175.854L148.078 172.087L147.574 172.054L147.759 172.512L166.689 228.171L127.756 184.014L127.45 183.626L127.226 184.077L103.385 232.227L103.219 232.591L103.283 232.608L102.61 235.119L103.059 235.103C103.194 235.097 103.328 235.111 103.459 235.142C103.81 235.236 103.799 235.403 103.748 235.594C103.617 236.059 103.327 236.463 102.929 236.737L103.256 237.302C103.704 237.083 104.215 237.027 104.7 237.144C105.188 237.301 105.609 237.618 105.895 238.043C106.188 238.422 106.366 238.876 106.408 239.352C106.45 239.828 106.354 240.306 106.132 240.73C106.046 240.903 105.912 241.048 105.746 241.149C105.58 241.249 105.389 241.3 105.194 241.296L105.035 241.253C104.713 241.153 104.441 240.934 104.276 240.641C104.12 240.405 103.893 240.224 103.627 240.126C103.46 240.078 103.282 240.078 103.115 240.125C102.818 240.217 102.553 240.39 102.351 240.625C102.149 240.861 102.018 241.148 101.973 241.454C101.946 241.674 101.99 241.897 102.097 242.091C102.205 242.285 102.371 242.44 102.572 242.535L103.112 242.816L102.076 244.514C101.753 244.7 100.644 245.391 100.476 246.402C100.434 246.679 100.463 246.963 100.559 247.227C100.656 247.491 100.817 247.726 101.028 247.912C101.232 248.178 101.515 248.373 101.836 248.469C102.474 248.64 102.947 248.154 103.338 247.714C103.729 247.273 104.225 246.827 104.863 246.998C105.501 247.169 106.442 248.375 106.606 249.679C106.716 250.288 106.756 251.797 105.471 252.509C104.187 253.221 102.917 253.494 101.705 253.169C101.138 253 100.593 252.763 100.083 252.462C99.0751 251.885 98.9114 251.603 98.8965 251.531L97.8893 249.422L98.2606 251.735L98.8443 255.298L95.377 258.798L94.109 253.961L96.4044 251.136L97.8829 249.318L95.9878 250.649C95.9069 250.696 95.6241 250.859 94.4949 250.863C93.9031 250.863 93.3131 250.797 92.7363 250.664C91.4924 250.331 90.5442 249.531 89.7727 248.201C89.0012 246.87 89.8373 245.663 90.2054 245.183C90.9989 244.135 92.258 243.518 93.0554 243.732C93.8528 243.946 93.8462 244.353 94.0182 245.114C94.1903 245.876 94.3028 246.349 94.9726 246.528C95.2897 246.596 95.62 246.566 95.9189 246.441C96.1987 246.389 96.4608 246.268 96.6817 246.089C96.9026 245.91 97.0754 245.679 97.1845 245.417C97.5442 244.458 96.8981 243.297 96.7111 242.974L96.6947 240.994L97.271 241.012C97.4932 241.036 97.717 240.987 97.9082 240.872C98.0995 240.757 98.2477 240.583 98.3302 240.376C98.4525 240.09 98.4869 239.773 98.4291 239.467C98.3713 239.16 98.2239 238.878 98.0054 238.654C97.8954 238.533 97.7519 238.447 97.5929 238.407C97.3142 238.346 97.0225 238.389 96.7742 238.529C96.4712 238.696 96.1172 238.746 95.7789 238.671L95.6195 238.628C95.4491 238.535 95.3088 238.395 95.2151 238.225C95.1214 238.055 95.0781 237.862 95.0903 237.669C95.1096 237.191 95.2658 236.729 95.5403 236.338C95.8147 235.947 96.1961 235.642 96.6391 235.461C97.099 235.235 97.622 235.171 98.1234 235.279C98.6048 235.437 99.0253 235.74 99.3268 236.147L99.8691 235.781C99.6612 235.345 99.6124 234.85 99.7314 234.382C99.7388 234.328 99.7581 234.277 99.7879 234.232C99.8177 234.187 99.8573 234.149 99.9037 234.121L100.208 234.135C100.338 234.168 100.462 234.224 100.573 234.301L100.954 234.539L101.397 232.886L104.9 178.095L104.932 177.592L104.472 177.776L48.6774 196.55L92.9 157.813L93.2892 157.508L92.8364 157.285L41.1447 131.784L40.8428 131.635L40.6938 131.935C39.9469 133.575 38.2667 134.487 36.7357 134.077C35.2047 133.667 34.5501 132.538 34.406 131.034L34.3848 130.858L34.2105 130.743C30.0389 128.706 29.1311 127.883 28.9186 127.656C29.2248 127.534 30.4859 127.293 35.2683 127.688L35.4278 127.731L35.5661 127.598C35.9469 127.145 36.4466 126.807 37.0095 126.621C37.5725 126.435 38.1764 126.408 38.754 126.544C40.4445 126.997 41.4391 128.899 41.0387 130.904L40.945 131.253L41.3129 131.284L98.7658 135.028L99.2698 135.061L99.0849 134.603L80.1874 78.9527L119.12 123.109L119.426 123.498L119.65 123.046L144.74 72.404L144.774 72.2769L144.736 72.1645L143.523 67.377C144.58 66.8767 146.105 66.1612 146.33 66.0854C146.576 65.9943 146.794 65.8414 146.962 65.6415M158.396 25.6472L157.121 25.3054L148.461 41.0394L151.295 47.045L150.759 49.0473C150.579 48.4071 150.236 47.8244 149.761 47.3568C149.287 46.8892 148.699 46.5529 148.055 46.381C145.822 45.7828 141.801 51.859 144.034 52.4572C146.266 53.0555 145.906 50.5743 147.5 51.0016C149.095 51.4289 148.073 55.2428 148.073 55.2428L146.096 54.713C146.096 54.713 145.074 57.5051 145.627 57.9938C146.18 58.4826 146.818 58.6535 146.562 59.607C146.504 59.8062 146.408 59.9921 146.278 60.154C146.148 60.3158 145.987 60.4505 145.805 60.5504C145.622 60.6502 145.422 60.7132 145.215 60.7358C145.008 60.7584 144.799 60.7401 144.599 60.682L144.28 60.5966C143.827 60.3573 143.356 60.1515 142.872 59.981C142.203 59.8015 141.607 59.9826 141.641 61.3882C141.683 63.784 143.277 64.2113 144.553 64.5531C145.829 64.895 145.78 63.9281 146.482 64.1162L146.705 64.176C147.602 64.6548 146.641 65.6917 146.271 65.7969C145.901 65.9021 143.157 67.2109 143.157 67.2109L144.438 72.255L119.38 122.906L79.3458 77.5008L98.8106 134.733L41.3661 130.957C41.8006 128.826 40.721 126.731 38.8392 126.227C38.2002 126.075 37.5317 126.104 36.9088 126.31C36.2859 126.516 35.7333 126.892 35.3131 127.394C32.9782 127.177 28.7062 126.918 28.5358 127.554C28.3655 128.189 31.9162 129.992 34.0615 131.044C34.212 132.651 35.2153 134.01 36.6505 134.395C38.0858 134.779 40.1829 133.842 41.0043 132.053L92.6959 157.554L47.2226 197.386L104.596 178.081L101.069 232.832L100.737 234.072C100.601 233.971 100.448 233.895 100.284 233.848C100.195 233.815 100.1 233.8 100.005 233.807C99.9093 233.813 99.8167 233.84 99.733 233.886C99.6493 233.931 99.5765 233.994 99.5197 234.071C99.4629 234.147 99.4234 234.235 99.4039 234.328C99.3213 234.603 99.2969 234.892 99.3323 235.177C99.3678 235.462 99.4622 235.737 99.6096 235.984C99.2813 235.486 98.7838 235.123 98.2086 234.961C97.6383 234.833 97.0413 234.901 96.5158 235.155C94.4911 236.077 94.333 238.454 95.5024 238.937L95.6938 238.989C96.5549 239.219 97.0293 238.597 97.5078 238.725C97.5615 238.733 97.6128 238.752 97.6581 238.782C97.7033 238.812 97.7413 238.851 97.7693 238.897C98.3603 239.499 98.2365 240.726 97.2838 240.709L96.3397 240.66L96.3815 243.056C96.3815 243.056 97.9756 245.527 95.8276 246.144C95.5802 246.228 95.3161 246.25 95.0578 246.21C94.0052 245.928 94.7034 243.833 93.1405 243.414C91.5777 242.995 88.0871 245.943 89.4899 248.363C90.4016 249.936 91.5029 250.674 92.6511 250.982C93.2503 251.126 93.8663 251.188 94.482 251.166C95.5708 251.185 95.9812 251.056 96.1514 250.932L93.7581 253.867L95.2066 259.433L99.1866 255.424L98.5818 251.685C98.6668 251.878 98.958 252.195 99.9105 252.722C100.443 253.053 101.018 253.31 101.62 253.487C102.736 253.786 104.059 253.698 105.635 252.792C108.06 251.397 106.798 247.176 104.948 246.68C103.098 246.184 102.942 248.425 101.922 248.152C101.668 248.055 101.44 247.9 101.256 247.701C99.7042 246.093 102.32 244.75 102.32 244.75L103.554 242.696L102.712 242.266C101.879 241.804 102.385 240.679 103.198 240.454C103.307 240.407 103.43 240.403 103.542 240.444C103.989 240.564 104.088 241.34 104.95 241.571L105.141 241.622C106.396 241.788 107.447 239.651 106.154 237.84C105.83 237.353 105.346 236.994 104.785 236.826C104.216 236.676 103.612 236.745 103.093 237.02C103.578 236.714 103.926 236.234 104.067 235.68C104.097 235.589 104.106 235.493 104.095 235.399C104.084 235.304 104.053 235.213 104.003 235.132C103.953 235.051 103.887 234.981 103.807 234.928C103.728 234.875 103.638 234.839 103.544 234.824C103.379 234.783 103.209 234.772 103.04 234.791L103.687 232.376L127.496 184.217L167.53 229.623L148.066 172.39L206.318 176.212C206.011 178.378 206.948 180.367 208.607 180.811C210.265 181.255 211.101 180.56 212.016 179.442C214.264 179.602 218.298 179.729 218.485 179.029C218.672 178.33 215.371 176.492 213.329 175.434C213.245 173.708 212.363 172.279 210.991 171.912C209.62 171.544 207.155 172.962 206.476 175.369L154.18 149.57L199.654 109.737L142.28 129.042L145.905 72.6481L149.536 68.9201C149.536 68.9201 147.815 66.4149 147.547 66.1388C147.279 65.8626 146.965 64.4839 147.981 64.5178L148.204 64.5777C148.906 64.7657 148.508 65.6129 149.656 65.9205C150.804 66.2282 152.527 66.6897 153.761 64.6358C154.493 63.4353 154.068 62.9807 153.398 62.8012C152.894 62.7071 152.383 62.6501 151.871 62.6306L151.552 62.5451C151.35 62.4954 151.159 62.4066 150.992 62.2836C150.824 62.1606 150.682 62.0059 150.574 61.8282C150.466 61.6506 150.394 61.4536 150.362 61.2485C150.331 61.0433 150.34 60.834 150.389 60.6325C150.645 59.679 151.283 59.85 152.006 59.7031C152.729 59.5562 153.24 56.6273 153.24 56.6273L151.263 56.0975C151.263 56.0975 152.285 52.2835 153.879 52.7108C155.474 53.1381 153.921 55.1065 156.154 55.7048C158.387 56.303 157.942 49.0304 155.71 48.4321C155.066 48.2589 154.388 48.2561 153.744 48.4239C153.099 48.5918 152.51 48.9245 152.035 49.3891L152.571 47.3868L158.029 43.6032L158.396 25.6472Z" fill="#1E1E24"/>
<path d="M131.575 188.649L130.947 169.813C132.378 169.29 133.743 168.604 135.016 167.769L149.414 176.805L167.204 229.058L131.575 188.649Z" fill="#1E1E24"/>
<path d="M135.014 167.905L149.324 176.883L166.9 228.534L131.696 188.579L131.066 169.879C132.461 169.391 133.788 168.728 135.014 167.905ZM134.995 167.593C133.699 168.481 132.29 169.192 130.805 169.707L131.462 188.686L167.532 229.623L149.535 176.735L134.995 167.593Z" fill="#1E1E24"/>
<path d="M119.16 170.163C128.778 172.74 138.657 167.06 141.225 157.476C143.793 147.892 138.078 138.033 128.46 135.456C118.842 132.879 108.964 138.559 106.396 148.144C103.828 157.728 109.543 167.586 119.16 170.163Z" fill="#1E1E24"/>
<path d="M128.426 135.583C131.856 136.496 134.938 138.402 137.284 141.06C139.629 143.719 141.132 147.01 141.601 150.517C142.071 154.024 141.486 157.589 139.921 160.761C138.356 163.933 135.881 166.569 132.81 168.335C129.739 170.101 126.209 170.918 122.668 170.681C119.128 170.445 115.735 169.167 112.92 167.009C110.105 164.85 107.995 161.909 106.856 158.556C105.717 155.204 105.601 151.592 106.523 148.178C107.755 143.614 110.752 139.726 114.857 137.365C118.962 135.005 123.841 134.364 128.426 135.583ZM128.494 135.329C125.024 134.4 121.358 134.516 117.959 135.664C114.559 136.812 111.579 138.939 109.396 141.778C107.212 144.616 105.923 148.038 105.691 151.61C105.459 155.182 106.295 158.745 108.094 161.847C109.892 164.949 112.572 167.451 115.794 169.038C119.016 170.624 122.636 171.223 126.196 170.759C129.756 170.294 133.096 168.788 135.794 166.43C138.491 164.072 140.426 160.968 141.352 157.51C142.594 152.874 141.938 147.933 139.526 143.773C137.115 139.613 133.146 136.576 128.494 135.329Z" fill="#1E1E24"/>
<path d="M93.8856 253.901L96.8256 250.329L96.0812 250.811C95.9514 250.912 95.5643 251.081 94.4756 251.062C93.8728 251.062 93.2719 250.993 92.6851 250.854C91.3774 250.504 90.3973 249.696 89.611 248.293C88.8246 246.89 89.6544 245.58 90.0309 245.068C90.8819 243.933 92.2218 243.27 93.1149 243.509C94.0079 243.749 94.0694 244.412 94.2351 245.07C94.4007 245.727 94.4899 246.16 95.0321 246.305C95.3088 246.373 95.5992 246.356 95.8657 246.256C96.1167 246.214 96.3516 246.106 96.5458 245.942C96.74 245.778 96.8864 245.565 96.9697 245.326C97.3123 244.43 96.6429 243.228 96.4941 243.018L96.4735 240.798L97.2901 240.813C97.4714 240.838 97.6558 240.801 97.8121 240.706C97.9683 240.611 98.0868 240.465 98.1472 240.293C98.2463 240.041 98.2725 239.767 98.223 239.501C98.1735 239.234 98.0501 238.987 97.867 238.787L97.5417 238.598C97.2972 238.554 97.0451 238.595 96.8272 238.713C96.4939 238.902 96.0999 238.955 95.7277 238.861L95.5682 238.819C95.3558 238.715 95.178 238.553 95.0561 238.351C94.9343 238.149 94.8737 237.916 94.8817 237.681C94.9052 237.159 95.0782 236.655 95.3802 236.229C95.6822 235.803 96.1006 235.472 96.5859 235.276C97.0758 235.027 97.6391 234.96 98.1744 235.088C98.7101 235.251 99.1739 235.592 99.4883 236.054L99.6989 235.906C99.5678 235.673 99.4854 235.416 99.4566 235.151C99.4278 234.885 99.4533 234.617 99.5314 234.362C99.6251 234.012 99.8675 233.873 100.25 233.975C100.402 234.016 100.546 234.077 100.68 234.159L100.822 234.265L101.197 232.867L104.371 183.131L117.283 169.388C118.104 169.744 118.951 170.039 119.815 170.271L120.932 170.57L125.117 188.758L103.502 232.428L103.534 232.437L102.87 234.916L103.046 234.895C103.203 234.895 103.358 234.914 103.51 234.951C103.925 235.062 104.065 235.304 103.971 235.654C103.908 235.916 103.792 236.162 103.628 236.376C103.465 236.59 103.259 236.768 103.022 236.898L103.131 237.132C103.634 236.889 104.206 236.826 104.751 236.953C105.289 237.11 105.755 237.452 106.065 237.918C106.38 238.333 106.571 238.828 106.613 239.347C106.656 239.865 106.55 240.385 106.306 240.844C106.203 241.051 106.04 241.223 105.839 241.339C105.638 241.454 105.407 241.509 105.175 241.495L104.984 241.444C104.62 241.328 104.309 241.088 104.106 240.765C103.987 240.559 103.8 240.401 103.576 240.317C103.442 240.283 103.303 240.281 103.168 240.31C102.913 240.398 102.686 240.552 102.511 240.757C102.336 240.961 102.219 241.209 102.172 241.474C102.145 241.653 102.177 241.836 102.264 241.994C102.351 242.153 102.489 242.279 102.655 242.353L103.401 242.757L102.242 244.66C102.039 244.777 100.827 245.474 100.676 246.421C100.638 246.67 100.663 246.925 100.749 247.162C100.834 247.399 100.978 247.611 101.167 247.779C101.362 247.999 101.614 248.161 101.896 248.247C102.406 248.384 102.781 248.007 103.204 247.575C103.627 247.144 104.125 246.562 104.922 246.775C105.72 246.989 106.644 248.259 106.814 249.667C106.916 250.307 106.971 251.889 105.597 252.679C104.223 253.469 102.93 253.702 101.654 253.36C101.065 253.186 100.499 252.943 99.9678 252.636C99.0153 252.108 98.7645 251.768 98.7029 251.615L98.331 250.834L99.0589 255.39L95.2747 259.179L93.8856 253.901Z" fill="#1E1E24"/>
<path d="M117.313 169.532C118.113 169.882 118.938 170.172 119.781 170.398L120.851 170.616L124.981 188.755L103.449 232.244L103.372 232.53L103.436 232.547L102.763 235.058L103.076 235.039C103.221 235.035 103.367 235.051 103.508 235.087C103.922 235.198 103.935 235.406 103.875 235.628C103.812 235.876 103.699 236.109 103.545 236.313C103.39 236.517 103.197 236.689 102.976 236.818L103.233 237.261C103.7 237.023 104.239 236.962 104.749 237.089C105.257 237.228 105.694 237.552 105.976 237.996C106.283 238.389 106.47 238.861 106.513 239.356C106.556 239.852 106.454 240.349 106.219 240.787C106.131 240.975 105.986 241.131 105.806 241.235C105.625 241.339 105.417 241.385 105.209 241.368L105.05 241.325C104.709 241.22 104.417 240.997 104.227 240.696C104.094 240.469 103.888 240.293 103.642 240.199C103.485 240.154 103.317 240.156 103.162 240.206C102.881 240.301 102.632 240.469 102.44 240.693C102.247 240.918 102.119 241.189 102.068 241.48C102.051 241.687 102.098 241.895 102.202 242.075C102.307 242.255 102.464 242.4 102.653 242.488L103.248 242.818L102.195 244.58C101.88 244.734 100.74 245.416 100.572 246.427C100.545 246.692 100.58 246.959 100.673 247.208C100.767 247.458 100.916 247.683 101.109 247.866C101.32 248.105 101.591 248.283 101.894 248.383C102.5 248.545 102.891 248.105 103.314 247.673C103.738 247.242 104.219 246.723 104.92 246.911C105.622 247.099 106.555 248.337 106.742 249.682C106.812 250.314 106.852 251.823 105.55 252.598C104.248 253.374 102.964 253.575 101.72 253.241C101.137 253.083 100.58 252.842 100.066 252.526C99.1132 251.998 98.8858 251.698 98.8475 251.586L98.0804 249.984L98.3648 251.729L98.9633 255.364L95.3662 258.965L94.0451 253.944L96.3809 251.095L97.4999 249.726L96.0344 250.73C95.9451 250.808 95.5984 250.954 94.5097 250.935C93.917 250.956 93.3242 250.889 92.7511 250.736C91.4753 250.394 90.5271 249.595 89.7237 248.256C88.9203 246.916 89.7735 245.646 90.1819 245.142C90.984 244.063 92.2516 243.414 93.1127 243.645C93.9739 243.876 93.9886 244.459 94.1224 245.108C94.2561 245.757 94.424 246.279 95.03 246.441C95.3325 246.498 95.6446 246.476 95.9359 246.377C96.2005 246.328 96.4482 246.213 96.6555 246.042C96.8628 245.871 97.0229 245.65 97.1207 245.4C97.4804 244.441 96.8343 243.28 96.6706 242.997L96.6075 240.937L97.3199 240.957C97.5242 240.972 97.7281 240.923 97.9033 240.818C98.0786 240.712 98.2165 240.555 98.2982 240.368C98.4072 240.092 98.4359 239.791 98.3811 239.499C98.3263 239.207 98.1902 238.936 97.9883 238.718C97.8871 238.603 97.7549 238.521 97.6077 238.479C97.3381 238.434 97.061 238.479 96.8209 238.609C96.5059 238.775 96.1413 238.823 95.7937 238.743L95.6342 238.7C95.4483 238.608 95.2938 238.463 95.1898 238.284C95.0859 238.104 95.0372 237.898 95.0498 237.692C95.0656 237.195 95.2258 236.714 95.5109 236.306C95.7961 235.899 96.1939 235.583 96.656 235.397C97.1219 235.153 97.6626 235.091 98.1723 235.224C98.6853 235.376 99.1301 235.699 99.4309 236.141L99.8435 235.876C99.6067 235.423 99.5521 234.897 99.6909 234.405C99.759 234.151 99.8717 234.113 99.9121 234.089L100.248 234.111C100.388 234.15 100.522 234.209 100.646 234.286L100.939 234.467L101.356 232.909L104.49 183.197L117.313 169.532ZM117.253 169.244L104.252 183.065L101.069 232.832L100.737 234.072C100.601 233.971 100.447 233.895 100.284 233.848C100.195 233.815 100.1 233.8 100.004 233.807C99.9092 233.813 99.8166 233.84 99.7329 233.886C99.6492 233.931 99.5765 233.994 99.5196 234.071C99.4628 234.147 99.4233 234.235 99.4038 234.328C99.3212 234.603 99.2969 234.892 99.3323 235.177C99.3677 235.462 99.4621 235.737 99.6096 235.984C99.2813 235.486 98.7837 235.123 98.2085 234.961C97.6382 234.833 97.0413 234.901 96.5158 235.155C94.491 236.077 94.3329 238.454 95.5023 238.937L95.6937 238.989C96.5549 239.219 97.0293 238.597 97.5077 238.725C97.5614 238.733 97.6127 238.752 97.658 238.782C97.7032 238.812 97.7412 238.851 97.7692 238.897C98.3602 239.499 98.2364 240.726 97.2838 240.709L96.3396 240.66L96.3814 243.056C96.3814 243.056 97.9755 245.527 95.8275 246.144C95.5801 246.228 95.316 246.25 95.0577 246.21C94.0052 245.928 94.7033 243.833 93.1405 243.414C91.5776 242.995 88.0871 245.943 89.4898 248.363C90.4016 249.936 91.5028 250.674 92.6511 250.982C93.2502 251.126 93.8662 251.188 94.4819 251.166C95.5707 251.185 95.9812 251.056 96.1513 250.932L93.7581 253.867L95.2066 259.433L99.1866 255.424L98.5817 251.685C98.6667 251.878 98.9579 252.195 99.9104 252.722C100.443 253.053 101.018 253.31 101.62 253.487C102.736 253.786 104.059 253.698 105.635 252.792C108.06 251.397 106.798 247.176 104.948 246.68C103.098 246.184 102.942 248.425 101.921 248.152C101.668 248.055 101.44 247.9 101.256 247.701C99.7042 246.093 102.32 244.75 102.32 244.75L103.554 242.696L102.712 242.266C101.879 241.804 102.385 240.679 103.198 240.454C103.307 240.407 103.43 240.403 103.542 240.444C103.989 240.564 104.088 241.34 104.95 241.571L105.141 241.622C106.396 241.788 107.447 239.651 106.154 237.84C105.83 237.353 105.346 236.994 104.785 236.826C104.216 236.676 103.612 236.745 103.092 237.02C103.577 236.714 103.926 236.234 104.067 235.68C104.097 235.589 104.106 235.493 104.095 235.399C104.084 235.304 104.053 235.213 104.003 235.132C103.953 235.051 103.887 234.981 103.807 234.928C103.728 234.875 103.638 234.839 103.544 234.824C103.379 234.783 103.209 234.772 103.04 234.791L103.687 232.376L125.253 188.76L121.038 170.428L119.858 170.112C118.972 169.875 118.104 169.575 117.262 169.212L117.253 169.244Z" fill="#1E1E24"/>
<path d="M141.944 145.61C141.265 143.88 140.327 142.262 139.162 140.811L147.617 127.372L199.088 110.063L159.114 145.067L141.944 145.61Z" fill="#1E1E24"/>
<path d="M198.563 110.365L159.076 144.954L142.042 145.5C141.378 143.797 140.455 142.206 139.307 140.781L147.687 127.493L198.563 110.365ZM199.654 109.738L147.538 127.283L139.026 140.808C140.222 142.305 141.181 143.975 141.87 145.76L159.152 145.179L199.654 109.738Z" fill="#1E1E24"/>
<path d="M89.4601 160.57L107.672 159.966C108.151 161.039 108.735 162.063 109.417 163.022L98.7766 179.895L47.7879 197.061L89.4601 160.57Z" fill="#1E1E24"/>
<path d="M107.597 160.116C108.073 161.138 108.634 162.12 109.272 163.051L98.7063 179.773L48.3131 196.759L89.4983 160.682L107.597 160.116ZM107.738 159.847L89.4218 160.458L47.222 197.386L98.887 179.992L109.585 163.033C108.869 162.031 108.251 160.964 107.738 159.847Z" fill="#1E1E24"/>
<path d="M141.421 160.322C141.924 159.313 142.322 158.255 142.609 157.166C142.771 156.562 142.909 155.917 143.016 155.265L158.438 151.801L206.571 175.53L206.605 175.403C207.267 173.06 209.236 171.578 210.959 172.039C212.681 172.501 213.142 173.714 213.227 175.44L213.21 175.504L213.273 175.521C217.132 177.577 218.412 178.669 218.359 178.996C218.306 179.322 216.555 179.603 212.02 179.307L211.956 179.29L211.939 179.353C210.992 180.462 209.767 180.952 208.651 180.653C207.534 180.353 206.125 178.341 206.424 176.206L206.458 176.079L154.748 172.716L141.421 160.322Z" fill="#1E1E24"/>
<path d="M158.404 151.928L206.385 175.583L206.623 175.715L206.7 175.429C207.345 173.149 209.234 171.714 210.893 172.158C212.551 172.602 212.989 173.776 213.058 175.429L213.088 175.574L213.216 175.608C217.107 177.672 218.212 178.65 218.24 178.93C218.267 179.21 216.566 179.435 212.022 179.171L211.894 179.137L211.868 179.232C210.962 180.318 209.769 180.816 208.685 180.525C207.6 180.235 206.278 178.28 206.568 176.177L206.636 175.923L206.364 175.918L154.782 172.589L141.597 160.301C142.068 159.303 142.449 158.265 142.736 157.2C142.889 156.628 143.019 156.015 143.126 155.363L158.404 151.928ZM158.44 151.665L142.905 155.167C142.797 155.829 142.655 156.484 142.481 157.131C142.19 158.243 141.786 159.322 141.276 160.351L154.682 172.834L206.319 176.213C206.012 178.379 206.949 180.367 208.608 180.811C210.267 181.256 211.102 180.56 212.017 179.443C214.265 179.602 218.299 179.729 218.486 179.03C218.674 178.331 215.372 176.492 213.331 175.434C213.246 173.708 212.364 172.28 210.993 171.912C209.621 171.545 207.156 172.962 206.477 175.369L158.44 151.665Z" fill="#1E1E24"/>
<path d="M40.9423 131.9L40.9082 132.027C40.0719 133.745 38.3109 134.704 36.6842 134.268C35.0576 133.832 34.3477 132.654 34.1972 131.046L34.2143 130.983L34.1186 130.957C28.6522 128.266 28.6545 127.62 28.6716 127.556C28.6886 127.492 29.0014 126.963 35.2872 127.489L35.3509 127.506L35.368 127.443C36.321 126.438 37.5928 126.029 38.7729 126.345C40.559 126.824 41.6237 128.846 41.2063 130.915L41.1637 131.074L94.4169 134.544L107.017 146.334C106.866 146.771 106.732 147.144 106.63 147.525C106.411 148.345 106.256 149.18 106.165 150.024L86.5956 154.42L40.9423 131.9Z" fill="#1E1E24"/>
<path d="M94.3508 134.663L106.872 146.364C106.73 146.768 106.627 147.15 106.534 147.499C106.319 148.284 106.151 149.081 106.031 149.886L86.6296 154.293L41.1272 131.847L40.8721 131.779L40.8124 132.001C40.0166 133.696 38.2959 134.631 36.7331 134.213C35.1702 133.794 34.4922 132.624 34.3247 131.081L34.3588 130.953L34.2312 130.919C29.5048 128.529 28.8841 127.783 28.7991 127.59C28.7141 127.397 29.9028 127.171 35.2849 127.625L35.4125 127.659L35.438 127.564C35.8341 127.1 36.3516 126.756 36.9329 126.569C37.5141 126.382 38.1363 126.359 38.7302 126.504C40.4526 126.966 41.5024 128.916 41.0935 130.953L41.0254 131.207L41.2805 131.275L94.3019 134.718M94.4019 134.472L41.3167 131.012C41.7512 128.881 40.6716 126.786 38.7898 126.282C38.1508 126.13 37.4823 126.159 36.8594 126.365C36.2366 126.571 35.684 126.947 35.2637 127.449C32.9289 127.232 28.6568 126.973 28.4865 127.609C28.3161 128.244 31.8668 130.047 34.0121 131.099C34.1626 132.706 35.1659 134.065 36.6012 134.45C38.0364 134.834 40.1824 133.842 41.0038 132.053L86.5933 154.556L106.276 150.121C106.37 149.256 106.531 148.4 106.757 147.559C106.876 147.114 107.019 146.71 107.17 146.273L94.4509 134.417L94.4019 134.472Z" fill="#1E1E24"/>
<path d="M122.354 117.163L144.574 72.2574L143.308 67.2854L146.309 65.9093C146.538 65.8089 146.738 65.6535 146.892 65.4571C147.046 65.2606 147.149 65.0292 147.192 64.7833C147.205 64.6339 147.172 64.4838 147.097 64.3537C147.022 64.2237 146.908 64.1201 146.771 64.0574L146.516 63.989C146.372 63.9596 146.223 63.9646 146.082 64.0038C145.941 64.0429 145.811 64.115 145.703 64.2142C145.553 64.3454 145.37 64.4342 145.174 64.4715C144.978 64.5087 144.775 64.493 144.587 64.426C143.279 64.0756 141.812 63.6825 141.776 61.3906C141.738 60.7673 141.849 60.3541 142.109 60.1511C142.219 60.0886 142.342 60.0522 142.468 60.0447C142.595 60.0373 142.721 60.0589 142.838 60.1081C143.225 60.2158 143.597 60.3726 143.944 60.5747L144.214 60.7151L144.564 60.8092C144.781 60.8717 145.008 60.8912 145.232 60.8663C145.456 60.8415 145.673 60.7729 145.87 60.6644C146.068 60.556 146.242 60.4098 146.382 60.2342C146.523 60.0586 146.627 59.8571 146.689 59.6412C146.911 58.8148 146.483 58.4959 146.056 58.177L145.716 57.9156C145.361 57.582 145.804 55.9293 146.157 54.8657L148.166 55.4041L148.2 55.277C148.243 55.1181 149.225 51.3274 147.534 50.8744C146.737 50.6608 146.369 51.1413 146.009 51.59C145.65 52.0387 145.184 52.6292 144.067 52.3301C143.944 52.3076 143.829 52.2505 143.737 52.1654C143.645 52.0804 143.579 51.9709 143.547 51.8499C143.483 51.5259 143.502 51.1913 143.602 50.8769C144.105 49.0017 146.521 46.1065 148.02 46.5082C148.642 46.678 149.21 47.0042 149.67 47.4554C150.13 47.9066 150.466 48.4678 150.646 49.0852L150.758 49.5582L151.44 47.0156L148.596 41.0418L157.182 25.4582L158.266 25.7487L157.91 43.5373L152.46 47.289L151.779 49.8317L152.113 49.4783C152.578 49.0337 153.149 48.7157 153.773 48.5547C154.397 48.3938 155.052 48.3954 155.675 48.5592C157.174 48.9609 157.82 52.6766 157.317 54.5518C157.246 54.874 157.096 55.1732 156.879 55.4222C156.79 55.511 156.678 55.5727 156.556 55.6003C156.434 55.6278 156.306 55.62 156.188 55.5776C155.071 55.2785 154.969 54.6381 154.876 53.9658C154.783 53.2936 154.711 52.7973 153.913 52.5837C152.223 52.1307 151.177 55.9044 151.135 56.0633L151.101 56.1904L153.11 56.7288C152.884 57.8265 152.442 59.4792 151.967 59.5906L151.542 59.647C151.012 59.7095 150.483 59.772 150.261 60.5983C150.203 60.8139 150.19 61.0396 150.226 61.2604C150.261 61.4812 150.342 61.6921 150.465 61.8793C150.578 62.0751 150.73 62.2463 150.911 62.3825C151.091 62.5188 151.298 62.6173 151.518 62.6722L151.868 62.7662L152.173 62.7796C152.574 62.7781 152.974 62.8281 153.363 62.9283C153.489 62.9442 153.61 62.9887 153.715 63.0584C153.821 63.1281 153.91 63.2211 153.974 63.3303C154.097 63.6358 153.986 64.049 153.641 64.5698C152.465 66.5369 150.998 66.1438 149.69 65.7934C149.493 65.7573 149.31 65.6695 149.158 65.5391C149.007 65.4087 148.893 65.2404 148.829 65.0517C148.785 64.912 148.709 64.7846 148.606 64.6801C148.503 64.5756 148.377 64.4969 148.238 64.4505L147.983 64.3821C147.833 64.368 147.682 64.4007 147.552 64.4756C147.422 64.5506 147.318 64.664 147.255 64.8004C147.169 65.0346 147.143 65.2865 147.178 65.5336C147.213 65.7808 147.309 66.0155 147.457 66.217L149.368 68.9092L145.786 72.5821L142.552 123.052L131.301 135.059C130.691 134.801 130.063 134.587 129.421 134.42C128.362 134.136 127.28 133.949 126.187 133.86L122.354 117.163Z" fill="#1E1E24"/>
<path d="M158.136 25.8502L157.79 43.4712L152.422 47.1765L151.579 50.3231L152.255 49.5846C152.694 49.1471 153.242 48.8342 153.842 48.6778C154.443 48.5215 155.075 48.5274 155.673 48.6949C157.012 49.0538 157.749 52.5555 157.221 54.5261C157.167 54.8279 157.033 55.1095 156.832 55.3415C156.756 55.4166 156.662 55.4701 156.559 55.4964C156.456 55.5226 156.347 55.5207 156.245 55.4908C155.192 55.2088 155.114 54.6086 155.044 53.9767C154.974 53.3448 154.863 52.7361 153.97 52.4968C152.184 52.0182 151.181 55.6329 151.071 56.0461L151.003 56.3004L152.98 56.8302C152.718 58.1908 152.258 59.3961 152.001 59.4634L151.576 59.5198C151.046 59.5823 150.444 59.6595 150.197 60.5812C150.081 61.05 150.154 61.5459 150.4 61.9624C150.646 62.3789 151.047 62.6825 151.515 62.8078L151.898 62.9104L152.202 62.9238C152.594 62.9114 152.986 62.9478 153.369 63.0322C153.656 63.1091 153.831 63.2239 153.884 63.4085C153.937 63.593 153.89 64.0233 153.586 64.5209C152.426 66.4244 151.023 66.0484 149.747 65.7065C149.566 65.6781 149.397 65.5985 149.26 65.4773C149.123 65.356 149.023 65.1981 148.973 65.0223C148.924 64.8649 148.836 64.7222 148.718 64.6072C148.6 64.4921 148.454 64.4084 148.295 64.3636L148.008 64.2867C147.762 64.2727 147.519 64.3543 147.332 64.5143C147.25 64.282 147.08 64.0902 146.86 63.9791L146.573 63.9022C146.413 63.8614 146.245 63.8612 146.085 63.9016C145.925 63.942 145.777 64.0217 145.656 64.1335C145.525 64.2607 145.36 64.3478 145.181 64.3842C145.001 64.4207 144.815 64.405 144.644 64.3391C143.368 63.9973 141.965 63.6212 141.912 61.393C141.898 60.8099 142 60.4285 142.21 60.2806C142.421 60.1326 142.557 60.135 142.844 60.2119C143.218 60.3305 143.576 60.495 143.909 60.7017L144.179 60.8422L144.562 60.9448C145.033 61.0713 145.535 61.0106 145.962 60.7754C146.388 60.5401 146.706 60.1488 146.848 59.6838C147.095 58.7621 146.581 58.3858 146.154 58.0669L145.813 57.8055C145.624 57.6185 145.829 56.3448 146.282 55.0355L148.292 55.574L148.36 55.3197C148.47 54.9065 149.377 51.2662 147.591 50.7876C146.698 50.5483 146.29 51.052 145.922 51.5325C145.554 52.013 145.177 52.5252 144.125 52.2432C144.021 52.218 143.926 52.1654 143.85 52.091C143.774 52.0166 143.719 51.9231 143.691 51.8204C143.633 51.5191 143.657 51.208 143.761 50.9196C144.289 48.949 146.678 46.2848 148.018 46.6438C148.617 46.8039 149.164 47.1168 149.605 47.5515C150.046 47.9863 150.366 48.5279 150.533 49.1231L150.781 50.1094L151.607 47.0265L151.561 46.9458L148.732 41.0441L157.243 25.6109L158.136 25.8502ZM147.044 65.4592C147.073 65.7622 147.184 66.0515 147.367 66.2952C147.557 66.4822 148.543 67.9046 149.2 68.8982L145.715 72.4611L145.664 72.6518L142.424 123.017L131.271 134.915L129.447 134.324C128.413 134.036 127.354 133.844 126.285 133.749L122.49 117.165L144.643 72.3783L144.695 72.1876L143.459 67.3598C144.524 66.8278 146.089 66.089 146.347 66.0217C146.627 65.9022 146.869 65.7075 147.044 65.4592ZM158.396 25.6472L157.12 25.3053L148.46 41.0393L151.295 47.0449L150.758 49.0472C150.579 48.407 150.235 47.8244 149.761 47.3567C149.287 46.8891 148.698 46.5528 148.054 46.381C145.822 45.7827 141.801 51.8589 144.033 52.4571C146.266 53.0554 145.905 50.5742 147.5 51.0015C149.095 51.4288 148.073 55.2428 148.073 55.2428L146.095 54.7129C146.095 54.7129 145.074 57.505 145.626 57.9938C146.179 58.4825 146.817 58.6534 146.561 59.6069C146.504 59.8062 146.407 59.992 146.277 60.1539C146.147 60.3158 145.986 60.4505 145.804 60.5503C145.622 60.6501 145.421 60.7131 145.215 60.7357C145.008 60.7583 144.798 60.7401 144.598 60.682L144.279 60.5965C143.826 60.3572 143.355 60.1515 142.872 59.9809C142.202 59.8014 141.607 59.9825 141.64 61.3882C141.682 63.7839 143.277 64.2112 144.552 64.5531C145.828 64.8949 145.78 63.9281 146.481 64.1161L146.705 64.1759C147.602 64.6548 146.64 65.6916 146.27 65.7968C145.9 65.9021 143.157 67.2108 143.157 67.2108L144.437 72.2549L122.226 117.128L126.089 133.969C127.204 134.062 128.307 134.255 129.387 134.547C130.05 134.718 130.7 134.937 131.331 135.204L142.671 123.117L145.904 72.6481L149.536 68.9201C149.536 68.9201 147.814 66.4149 147.546 66.1387C147.278 65.8625 146.964 64.4839 147.98 64.5178L148.204 64.5776C148.905 64.7656 148.507 65.6128 149.656 65.9205C150.804 66.2281 152.526 66.6896 153.76 64.6357C154.492 63.4352 154.067 62.9806 153.397 62.8011C152.893 62.7071 152.383 62.65 151.87 62.6305L151.551 62.545C151.349 62.4954 151.159 62.4065 150.991 62.2835C150.823 62.1605 150.681 62.0058 150.573 61.8282C150.465 61.6506 150.393 61.4536 150.362 61.2484C150.33 61.0432 150.339 60.8339 150.389 60.6325C150.644 59.679 151.282 59.8499 152.005 59.703C152.728 59.5561 153.24 56.6273 153.24 56.6273L151.262 56.0974C151.262 56.0974 152.284 52.2834 153.879 52.7107C155.474 53.1381 153.921 55.1065 156.153 55.7047C158.386 56.303 157.942 49.0303 155.709 48.4321C155.065 48.2588 154.388 48.256 153.743 48.4239C153.099 48.5917 152.51 48.9244 152.034 49.3891L152.571 47.3867L158.028 43.6032L158.396 25.6472Z" fill="#1E1E24"/>
<path d="M96.6754 128.03L79.6729 78.0654L115.932 119.189L116.477 135.652C115.122 136.31 113.848 137.123 112.683 138.076L96.6754 128.03Z" fill="#1E1E24"/>
<path d="M79.9764 78.5897L115.787 119.218L116.358 135.586C115.037 136.21 113.802 137.001 112.685 137.94L96.7644 127.952L79.9764 78.5897ZM79.3452 77.5009L96.5857 128.108L112.704 138.252C113.894 137.255 115.201 136.404 116.596 135.718L116.044 119.151L79.3452 77.5009Z" fill="#1E1E24"/>
<path d="M107.783 165.548L107.712 165.427C106.578 164.013 105.652 162.446 104.96 160.772L104.89 160.651L51.3585 163.067L103.449 150.59L103.483 150.463C103.578 149.498 103.754 148.542 104.01 147.607C104.236 146.791 104.508 145.988 104.825 145.202L104.85 145.107L65.2428 109.081L110.962 136.968L111.084 136.898C112.5 135.77 114.07 134.849 115.748 134.162L115.869 134.093L113.351 80.7196L125.958 132.674L126.085 132.708C127.065 132.805 128.034 132.985 128.984 133.246C129.792 133.472 130.587 133.742 131.365 134.055L131.461 134.08L167.526 94.6566L139.635 140.188L139.705 140.309C140.84 141.723 141.766 143.29 142.458 144.964L142.528 145.085L196.059 142.669L143.969 155.146L143.935 155.273C143.839 156.249 143.66 157.215 143.4 158.161C143.175 158.966 142.906 159.759 142.593 160.534L142.568 160.629L182.175 196.655L136.456 168.768L136.334 168.838C134.918 169.966 133.348 170.887 131.67 171.574L131.549 171.643L134.066 225.016L121.46 173.062L121.333 173.028C120.364 172.932 119.405 172.755 118.466 172.498C117.647 172.271 116.841 171.998 116.053 171.681L115.957 171.656L79.8916 211.079L107.783 165.548ZM128.158 136.329C124.871 135.442 121.397 135.546 118.173 136.628C114.95 137.711 112.123 139.723 110.049 142.41C107.976 145.096 106.75 148.337 106.527 151.723C106.303 155.108 107.092 158.484 108.793 161.426C110.494 164.367 113.032 166.741 116.084 168.246C119.136 169.752 122.567 170.321 125.941 169.883C129.314 169.445 132.48 168.018 135.037 165.784C137.595 163.55 139.428 160.609 140.306 157.332C141.481 152.946 140.862 148.271 138.585 144.333C136.307 140.396 132.557 137.517 128.158 136.329Z" fill="#FFF8F0"/>
<path d="M166.503 96.0514L139.542 140.027L139.427 140.2L139.576 140.41C140.693 141.826 141.621 143.38 142.337 145.034L142.413 145.259L142.621 145.246L194.318 142.917L144.052 154.963L143.803 154.999L143.743 155.221C143.646 156.197 143.467 157.164 143.209 158.11C142.987 158.905 142.721 159.686 142.41 160.451L142.351 160.673L142.517 160.82L180.774 195.632L136.617 168.675L136.443 168.56L136.232 168.708C134.814 169.819 133.257 170.742 131.6 171.453L131.374 171.528L131.387 171.736L133.814 223.279L121.643 173.145L121.607 172.897L121.384 172.837C120.415 172.74 119.456 172.563 118.517 172.307C117.709 172.084 116.913 171.814 116.136 171.499L115.913 171.439L115.766 171.604L80.9149 209.684L107.876 165.709L107.991 165.535L107.842 165.325C106.725 163.91 105.797 162.355 105.081 160.702L105.005 160.477L104.797 160.489L53.1002 162.818L103.366 150.772L103.615 150.737L103.675 150.514C103.77 149.549 103.946 148.594 104.201 147.658C104.424 146.852 104.693 146.06 105.008 145.285L105.067 145.062L104.901 144.916L66.6439 110.104L110.801 137.061L110.975 137.175L111.186 137.027C112.604 135.916 114.161 134.994 115.818 134.283L116.044 134.207L116.031 133.999L113.604 82.4562L125.775 132.591L125.811 132.839L126.034 132.899C127.014 132.997 127.983 133.177 128.933 133.437C129.73 133.659 130.515 133.926 131.282 134.237L131.505 134.297L131.652 134.131L166.503 96.0514ZM119.25 169.574C122.569 170.464 126.077 170.352 129.329 169.253C132.581 168.154 135.432 166.117 137.52 163.4C139.608 160.684 140.839 157.409 141.058 153.991C141.278 150.573 140.475 147.166 138.751 144.199C137.028 141.233 134.462 138.842 131.377 137.327C128.292 135.813 124.828 135.245 121.423 135.694C118.018 136.143 114.824 137.589 112.247 139.85C109.669 142.11 107.824 145.083 106.944 148.393C105.766 152.823 106.4 157.542 108.707 161.513C111.014 165.484 114.806 168.383 119.25 169.574ZM168.582 93.27L131.408 133.896C130.631 133.579 129.836 133.309 129.026 133.087C128.067 132.822 127.087 132.639 126.096 132.541L113.122 79.0229L115.686 134.009C114.001 134.714 112.418 135.642 110.982 136.768L63.8503 108.027L104.665 145.159C104.345 145.943 104.073 146.746 103.85 147.564C103.59 148.51 103.411 149.476 103.315 150.452L49.6573 163.292L104.807 160.833C105.517 162.515 106.45 164.094 107.583 165.528L78.8364 212.466L116.01 171.84C116.797 172.161 117.603 172.434 118.424 172.657C119.373 172.918 120.342 173.098 121.322 173.195L134.296 226.713L131.732 171.726C133.417 171.022 135 170.094 136.436 168.967L183.568 197.709L142.753 160.577C143.069 159.803 143.339 159.01 143.559 158.204C143.824 157.248 144.005 156.271 144.103 155.283L197.761 142.443L142.611 144.903C141.901 143.221 140.968 141.642 139.835 140.208L168.582 93.27ZM119.335 169.256C116.075 168.39 113.146 166.579 110.916 164.052C108.687 161.526 107.259 158.399 106.813 155.066C106.367 151.733 106.922 148.345 108.409 145.33C109.897 142.316 112.249 139.811 115.167 138.133C118.086 136.455 121.44 135.679 124.805 135.903C128.169 136.127 131.394 137.342 134.068 139.394C136.743 141.445 138.749 144.241 139.831 147.426C140.913 150.612 141.023 154.045 140.147 157.289C138.976 161.626 136.128 165.32 132.227 167.563C128.327 169.805 123.691 170.414 119.335 169.256Z" fill="#1E1E24"/>
</g>
<defs>
<filter id="filter0_d_197_69" x="28.4805" y="25.3054" width="202.013" height="251.128" filterUnits="userSpaceOnUse" color-interpolation-filters="sRGB">
<feFlood flood-opacity="0" result="BackgroundImageFix"/>
<feColorMatrix in="SourceAlpha" type="matrix" values="0 0 0 0 0 0 0 0 0 0 0 0 0 0 0 0 0 0 127 0" result="hardAlpha"/>
<feOffset dx="8" dy="13"/>
<feGaussianBlur stdDeviation="2"/>
<feComposite in2="hardAlpha" operator="out"/>
<feColorMatrix type="matrix" values="0 0 0 0 0 0 0 0 0 0 0 0 0 0 0 0 0 0 0.5 0"/>
<feBlend mode="normal" in2="BackgroundImageFix" result="effect1_dropShadow_197_69"/>
<feBlend mode="normal" in="SourceGraphic" in2="effect1_dropShadow_197_69" result="shape"/>
</filter>
</defs>
</svg>
