<svg
  width="39"
  height="47"
  viewBox="0 0 39 47"
  fill="none"
  xmlns="http://www.w3.org/2000/svg"
>
  <g clip-path="url(#clip0_21_2)">
    <path
      d="M19.5785 0.0638587L20.4096 3.36535L19.5785 4.32323L19.5654 4.34239V5.02568L19.6898 4.80217C19.7505 4.70077 19.8375 4.61673 19.942 4.55845C20.0465 4.50017 20.1649 4.46971 20.2852 4.47011C20.547 4.47011 20.8676 5.08315 20.8676 5.47269C20.8695 5.52972 20.8583 5.58645 20.8349 5.63872C20.8253 5.65368 20.8117 5.66577 20.7955 5.67366C20.7794 5.68155 20.7613 5.68493 20.7433 5.68342C20.5404 5.68342 20.5012 5.58764 20.4488 5.47269C20.3965 5.35774 20.3507 5.23641 20.1544 5.23641C19.7748 5.23641 19.7617 5.98356 19.7617 6.06658V6.13043H20.174C20.1871 6.37948 20.1674 6.62215 20.1282 6.64769L20.0497 6.67962C19.9515 6.71793 19.8272 6.76264 19.8272 6.9606C19.828 7.00924 19.8387 7.05724 19.8586 7.10186C19.8784 7.14648 19.9071 7.18684 19.943 7.22064C19.9788 7.25444 20.0211 7.28102 20.0675 7.29886C20.1139 7.31669 20.1634 7.32544 20.2133 7.32459H20.2983L20.3507 7.31182C20.426 7.29494 20.5026 7.28426 20.5797 7.27989C20.6175 7.27663 20.6552 7.28811 20.6844 7.31182C20.7106 7.35014 20.7106 7.42038 20.6779 7.52255C20.5601 7.92486 20.2918 7.92486 20.0235 7.92486C19.9892 7.92735 19.9548 7.921 19.9238 7.90643C19.8928 7.89186 19.8662 7.86959 19.8468 7.84185C19.8296 7.81271 19.8048 7.78851 19.7749 7.7717C19.745 7.75488 19.7112 7.74604 19.6767 7.74606H19.6178C19.5943 7.74945 19.5718 7.75742 19.5516 7.76949C19.5313 7.78156 19.5138 7.79748 19.5 7.8163C19.4862 7.79748 19.4687 7.78156 19.4484 7.76949C19.4282 7.75742 19.4057 7.74945 19.3822 7.74606H19.3233C19.2888 7.74604 19.255 7.75488 19.2251 7.7717C19.1952 7.78851 19.1704 7.81271 19.1532 7.84185C19.133 7.86841 19.1061 7.88943 19.0752 7.90286C19.0442 7.91629 19.0102 7.92167 18.9765 7.91848C18.7082 7.91848 18.4399 7.91848 18.3221 7.51617C18.2894 7.41399 18.2894 7.34375 18.3156 7.30543C18.3448 7.28172 18.3825 7.27025 18.4203 7.27351C18.4974 7.27788 18.574 7.28856 18.6493 7.30543L18.7017 7.31821H18.7867C18.8863 7.31994 18.9826 7.28342 19.0548 7.21652C19.127 7.14963 19.1694 7.05771 19.1728 6.9606C19.1728 6.76264 19.0485 6.71793 18.9503 6.67962L18.8784 6.64769C18.8326 6.62215 18.8129 6.37948 18.826 6.13043H19.2383V6.06658C19.2383 5.98356 19.2252 5.23641 18.8456 5.23641C18.6493 5.23641 18.597 5.36413 18.5512 5.47269C18.5054 5.58125 18.4596 5.68342 18.2567 5.68342C18.2387 5.68493 18.2206 5.68155 18.2045 5.67366C18.1883 5.66577 18.1747 5.65368 18.1651 5.63872C18.1417 5.58645 18.1305 5.52972 18.1324 5.47269C18.1324 5.08315 18.453 4.47011 18.7148 4.47011C18.8351 4.46971 18.9535 4.50017 19.058 4.55845C19.1625 4.61673 19.2495 4.70077 19.3102 4.80217L19.4346 5.03207V4.34239L19.4215 4.32323L18.5904 3.36535L19.4215 0.0638587H19.5785ZM19.5 8.07174C19.522 8.11768 19.5558 8.15728 19.5982 8.18668C19.6374 8.21223 19.8926 8.42296 20.0693 8.56984L19.5916 9.40639L19.5785 9.42554V9.45109L21.7903 20.2049L21.8099 20.3007L21.8884 20.2432L31.6057 13.9212L25.1275 23.4042L25.0686 23.4808L25.1668 23.5L36.5003 25.7095L36.5789 25.7287V25.652C36.5854 25.205 36.8668 24.841 37.2005 24.841C37.5342 24.841 37.6716 25.039 37.7698 25.3391L37.7829 25.3711L37.8156 25.3838C38.6074 25.5562 38.8822 25.684 38.9346 25.7351C38.8822 25.7861 38.5943 25.9075 37.7698 26.0735H37.7371L37.724 26.1054C37.6128 26.3481 37.4164 26.495 37.2005 26.495C36.9846 26.495 36.6378 26.2076 36.5854 25.8053V25.7351L36.52 25.7478L25.1668 27.9701L25.0686 27.9893L25.1275 28.0659L31.6057 37.5489L21.8884 31.2269L21.8099 31.1694L21.7903 31.2652L19.6963 41.489L19.6832 41.5656H19.6963V42.0701L19.7814 42.0446C19.8068 42.0368 19.8332 42.0325 19.8599 42.0318C19.9319 42.0318 19.9384 42.0637 19.9384 42.102C19.9372 42.1957 19.9025 42.2861 19.8403 42.3575L19.9319 42.4469C20.0064 42.3834 20.1013 42.3473 20.2002 42.3447C20.3017 42.3497 20.3985 42.3879 20.475 42.4533C20.5505 42.5096 20.6079 42.5858 20.6403 42.673C20.6728 42.7601 20.679 42.8545 20.6582 42.945C20.6506 42.9818 20.6325 43.0158 20.6058 43.043C20.5791 43.0701 20.5451 43.0893 20.5077 43.0982H20.475C20.4082 43.0956 20.345 43.0682 20.2983 43.0216C20.2565 42.9851 20.2037 42.9627 20.1478 42.9577C20.1133 42.9571 20.0793 42.9659 20.0497 42.9833C19.9975 43.0154 19.9558 43.0612 19.9291 43.1154C19.9025 43.1696 19.8921 43.2301 19.8992 43.2898C19.9053 43.3324 19.9251 43.3719 19.9557 43.4029C19.9862 43.4338 20.026 43.4546 20.0693 43.4622L20.1871 43.4878L20.0758 43.8582C20.0235 43.9092 19.8468 44.0944 19.8664 44.2924C19.8727 44.3465 19.8927 44.3983 19.9247 44.4429C19.9567 44.4875 19.9997 44.5236 20.0497 44.5478C20.1023 44.5875 20.1664 44.6099 20.2329 44.6117C20.3638 44.6117 20.4292 44.4967 20.4815 44.3946C20.5339 44.2924 20.6059 44.1838 20.7367 44.1838C20.8676 44.1838 21.1097 44.3626 21.2079 44.5989C21.2602 44.7075 21.3453 44.9884 21.1359 45.1864C20.9265 45.3844 20.6975 45.4993 20.4488 45.4993C20.3315 45.4962 20.2151 45.479 20.102 45.4482C19.8795 45.3908 19.8337 45.3461 19.8272 45.3333L19.5262 44.9884L19.7159 45.4035L20.0104 46.0421L19.5262 46.8723L19.0354 46.0293L19.3299 45.3844L19.5196 44.9693L19.2252 45.3141C19.2121 45.3269 19.1663 45.3716 18.9503 45.4291C18.8371 45.459 18.7207 45.4761 18.6035 45.4802C18.3483 45.4802 18.1258 45.378 17.9099 45.1673C17.694 44.9565 17.7921 44.6883 17.8379 44.5798C17.9361 44.3435 18.1455 44.1647 18.3091 44.1647C18.4727 44.1647 18.4923 44.2413 18.5643 44.3754C18.6362 44.5095 18.682 44.5925 18.8195 44.5925C18.8837 44.5894 18.9453 44.5671 18.9961 44.5287C19.047 44.5048 19.091 44.4689 19.1241 44.4244C19.1572 44.3798 19.1785 44.3278 19.1859 44.2732C19.2055 44.0753 19.0223 43.8901 18.97 43.839L18.8653 43.4686L18.9765 43.4431C19.0203 43.4364 19.0606 43.4159 19.0913 43.3848C19.122 43.3537 19.1415 43.3136 19.1466 43.2706C19.1553 43.2108 19.1457 43.1497 19.1189 43.0952C19.0921 43.0406 19.0494 42.995 18.9961 42.9641C18.9689 42.9469 18.937 42.938 18.9045 42.9386C18.848 42.941 18.7944 42.9637 18.754 43.0024C18.7046 43.049 18.6394 43.0762 18.5708 43.0791H18.5381C18.5007 43.0701 18.4667 43.0509 18.44 43.0238C18.4134 42.9967 18.3952 42.9627 18.3876 42.9258C18.3668 42.8353 18.373 42.7409 18.4055 42.6538C18.438 42.5667 18.4953 42.4904 18.5708 42.4341C18.6473 42.3688 18.7441 42.3305 18.8456 42.3255C18.9459 42.331 19.0419 42.3667 19.1205 42.4277L19.2055 42.3319C19.1433 42.2605 19.1086 42.1702 19.1074 42.0765C19.1061 42.0661 19.1071 42.0555 19.1105 42.0456C19.1139 42.0356 19.1196 42.0266 19.127 42.019L19.1859 42.0062C19.2126 42.006 19.2392 42.0103 19.2644 42.019L19.3495 42.0446V41.7125L17.2097 31.2652L17.1901 31.1694L17.1116 31.2269L7.3943 37.5489L13.8725 28.0659L13.9314 27.9893L13.8332 27.9701L2.63054 25.7861L2.5651 25.7734L2.55201 25.8372C2.49312 26.1821 2.21829 26.4375 1.90419 26.4375C1.5901 26.4375 1.40688 26.2587 1.30218 25.9841L1.28909 25.9522L1.24983 25.9394C0.346812 25.767 0.130872 25.6584 0.0785235 25.6265C0.130872 25.5882 0.359899 25.4796 1.29564 25.3136H1.32836L1.34799 25.2817C1.39765 25.1776 1.47595 25.0891 1.57416 25.0259C1.67238 24.9628 1.78664 24.9275 1.90419 24.924C2.25101 24.924 2.53893 25.2306 2.5651 25.6265V25.6967L2.63708 25.684L13.8267 23.5L13.9248 23.4808L13.8659 23.4042L7.3943 13.9212L17.1116 20.2432L17.1901 20.3007L17.2097 20.2049L19.4149 9.45109V9.42554L19.4018 9.40639L18.9242 8.56984C19.1008 8.42296 19.356 8.21223 19.3953 8.18668C19.4376 8.15728 19.4715 8.11768 19.4935 8.07174M19.6309 0H19.3691L18.5185 3.38451L19.3691 4.36793V4.77024C19.3019 4.65925 19.2062 4.56729 19.0915 4.50345C18.9767 4.43962 18.8469 4.40611 18.7148 4.40625C18.2567 4.40625 17.7987 5.74728 18.2567 5.74728C18.7148 5.74728 18.5185 5.30027 18.8456 5.30027C19.1728 5.30027 19.1728 6.06658 19.1728 6.06658H18.7671C18.7671 6.06658 18.7148 6.6413 18.8456 6.70516C18.9765 6.76902 19.1074 6.76902 19.1074 6.9606C19.1065 7.00085 19.0976 7.04055 19.081 7.07742C19.0644 7.1143 19.0406 7.14762 19.0108 7.17549C18.981 7.20336 18.9459 7.22524 18.9075 7.23986C18.869 7.25449 18.828 7.26158 18.7867 7.26073H18.7213C18.6222 7.23866 18.5216 7.22372 18.4203 7.21603C18.2829 7.21603 18.1782 7.27989 18.2567 7.54171C18.3876 7.98872 18.7148 7.98872 18.9765 7.98872C19.2383 7.98872 19.1794 7.80992 19.3233 7.80992H19.3691C19.5654 7.85462 19.4346 8.09728 19.3691 8.1356C19.3037 8.17391 18.8456 8.55707 18.8456 8.55707L19.3495 9.43832L17.1508 20.1921L7.15873 13.6913L13.8201 23.4425L2.63054 25.6201C2.60436 25.1986 2.29027 24.8602 1.90419 24.8602C1.77409 24.8639 1.64761 24.9029 1.53896 24.9728C1.43031 25.0427 1.34378 25.1408 1.28909 25.2561C0.83104 25.3327 0 25.4988 0 25.6265C0 25.7542 0.772148 25.9139 1.23674 26.0033C1.34799 26.297 1.60973 26.5014 1.90419 26.5014C2.19866 26.5014 2.55201 26.2204 2.61745 25.8436L13.8201 28.0276L7.15873 37.7788L17.1508 31.278L19.2841 41.7189V41.9679C19.2528 41.9559 19.2195 41.9494 19.1859 41.9488C19.1671 41.9469 19.1481 41.949 19.1302 41.955C19.1123 41.961 19.0959 41.9707 19.0823 41.9834C19.0686 41.9962 19.0579 42.0117 19.0509 42.0289C19.044 42.046 19.0409 42.0644 19.0419 42.0829C19.0402 42.1386 19.0504 42.194 19.0718 42.2457C19.0932 42.2974 19.1254 42.3441 19.1663 42.383C19.0779 42.3062 18.964 42.2631 18.8456 42.2617C18.7299 42.2662 18.6191 42.309 18.5315 42.383C18.1913 42.6576 18.2829 43.111 18.5315 43.1429H18.5708C18.7475 43.1429 18.8064 43.0024 18.9045 43.0024C18.9152 43.0011 18.926 43.0022 18.9362 43.0055C18.9464 43.0088 18.9557 43.0143 18.9634 43.0216C19.1074 43.1046 19.1466 43.3409 18.9634 43.3856L18.7802 43.4239L18.9111 43.8709C18.9111 43.8709 19.343 44.2541 18.9634 44.4776C18.9204 44.5057 18.871 44.5232 18.8195 44.5287C18.6035 44.5287 18.6297 44.1008 18.3091 44.1008C17.9884 44.1008 17.4715 44.8288 17.8641 45.212C18.1193 45.461 18.368 45.544 18.6035 45.544C18.7256 45.541 18.8467 45.5217 18.9634 45.4865C19.1728 45.4355 19.2448 45.3908 19.271 45.3588L18.9634 46.0293L19.5262 47L20.0824 46.0485L19.7748 45.378C19.801 45.4099 19.873 45.4546 20.0824 45.5057C20.2013 45.5409 20.3246 45.5602 20.4488 45.5632C20.6779 45.5632 20.9265 45.4802 21.1817 45.2311C21.5743 44.848 21.1163 44.12 20.7367 44.12C20.3572 44.12 20.4423 44.5478 20.2329 44.5478C20.1793 44.5424 20.1278 44.5249 20.0824 44.4967C19.7029 44.2732 20.1347 43.8901 20.1347 43.8901L20.2656 43.4431L20.0824 43.4048C19.8992 43.3601 19.9384 43.1238 20.0824 43.0408C20.1008 43.0264 20.1243 43.0195 20.1478 43.0216C20.2394 43.0216 20.2983 43.1621 20.475 43.1621H20.5143C20.7629 43.1302 20.8545 42.6768 20.5143 42.4022C20.4273 42.3272 20.3162 42.2843 20.2002 42.2808C20.0836 42.2814 19.9715 42.3247 19.8861 42.4022C19.9632 42.3205 20.0054 42.2131 20.0039 42.102C20.0049 42.0836 20.0018 42.0652 19.9949 42.048C19.9879 42.0308 19.9772 42.0154 19.9636 42.0026C19.9499 41.9899 19.9335 41.9802 19.9156 41.9742C19.8977 41.9682 19.8787 41.9661 19.8599 41.9679C19.8263 41.9685 19.793 41.975 19.7617 41.9871V41.5018L21.8492 31.278L31.8413 37.7788L25.1799 28.0276L36.5265 25.8181C36.5789 26.2395 36.8602 26.5652 37.2005 26.5652C37.5408 26.5652 37.6651 26.3928 37.7829 26.1374C38.2213 26.0543 39 25.8755 39 25.7351C39 25.5946 38.2737 25.4158 37.8287 25.32C37.724 25.0007 37.4819 24.7772 37.2005 24.7772C36.9191 24.7772 36.52 25.1667 36.5134 25.652L25.1799 23.4425L31.8413 13.6913L21.8492 20.1921L19.6505 9.43832L20.1544 8.55707C20.1544 8.55707 19.6963 8.17391 19.6309 8.1356C19.5654 8.09728 19.4346 7.85462 19.6309 7.80992H19.6767C19.8206 7.80992 19.7879 7.98872 20.0235 7.98872C20.2591 7.98872 20.6124 7.98872 20.7433 7.54171C20.8218 7.27989 20.7171 7.21603 20.5797 7.21603C20.4784 7.22372 20.3778 7.23866 20.2787 7.26073H20.2133C20.172 7.26158 20.131 7.25449 20.0926 7.23986C20.0541 7.22524 20.019 7.20336 19.9892 7.17549C19.9594 7.14762 19.9356 7.1143 19.919 7.07742C19.9024 7.04055 19.8935 7.00085 19.8926 6.9606C19.8926 6.76902 20.0235 6.76902 20.1544 6.70516C20.2852 6.6413 20.2329 6.06658 20.2329 6.06658H19.8272C19.8272 6.06658 19.8272 5.30027 20.1544 5.30027C20.4815 5.30027 20.2852 5.74728 20.7433 5.74728C21.2013 5.74728 20.7433 4.40625 20.2852 4.40625C20.1531 4.40611 20.0233 4.43962 19.9085 4.50345C19.7938 4.56729 19.6981 4.65925 19.6309 4.77024V4.36793L20.4815 3.38451L19.6309 0Z"
      fill="black"
    />
    <path
      d="M22.857 31.9038L21.7708 28.4043C22.0178 28.2345 22.244 28.0373 22.4447 27.8168L25.6642 28.7875L31.7498 37.6894L22.857 31.9038Z"
      fill="#9A7D0A"
    />
    <path
      d="M22.4513 27.8424L25.6511 28.8067L31.6647 37.6064L22.8766 31.8846L21.7969 28.4107C22.0389 28.2492 22.2588 28.0582 22.4513 27.8424ZM22.4317 27.7849C22.2292 28.0164 21.996 28.2205 21.738 28.3916L22.8374 31.9166L31.8414 37.7788L25.6838 28.7683L22.4317 27.7849Z"
      fill="black"
    />
    <path
      d="M19.5328 29.0621C21.506 29.0621 23.1056 27.501 23.1056 25.5754C23.1056 23.6498 21.506 22.0887 19.5328 22.0887C17.5596 22.0887 15.96 23.6498 15.96 25.5754C15.96 27.501 17.5596 29.0621 19.5328 29.0621Z"
      fill="#9A7D0A"
    />
    <path
      d="M19.5328 22.1143C20.2361 22.113 20.924 22.3154 21.5093 22.696C22.0947 23.0765 22.5511 23.618 22.8208 24.2519C23.0906 24.8857 23.1615 25.5835 23.0246 26.2567C22.8877 26.9299 22.5492 27.5484 22.0519 28.0337C21.5545 28.519 20.9208 28.8494 20.231 28.983C19.5411 29.1166 18.8261 29.0474 18.1766 28.7841C17.5271 28.5209 16.9722 28.0755 16.5823 27.5043C16.1923 26.933 15.9849 26.2618 15.9862 25.5754C15.9879 24.658 16.3621 23.7786 17.0269 23.1299C17.6916 22.4811 18.5927 22.1159 19.5328 22.1143ZM19.5328 22.0632C18.821 22.0632 18.1252 22.2692 17.5333 22.6551C16.9415 23.041 16.4802 23.5896 16.2078 24.2313C15.9354 24.8731 15.8641 25.5793 16.003 26.2606C16.1419 26.9419 16.4846 27.5677 16.988 28.0589C17.4913 28.5501 18.1326 28.8846 18.8307 29.0201C19.5288 29.1557 20.2525 29.0861 20.9101 28.8203C21.5677 28.5544 22.1298 28.1043 22.5253 27.5267C22.9208 26.9491 23.1318 26.2701 23.1318 25.5754C23.1318 24.6439 22.7526 23.7506 22.0777 23.0919C21.4028 22.4332 20.4873 22.0632 19.5328 22.0632Z"
      fill="black"
    />
    <path
      d="M18.9898 46.0293L19.3693 45.2119L19.2515 45.3397C19.2319 45.3652 19.1664 45.4163 18.957 45.4674C18.8417 45.4977 18.7231 45.5149 18.6037 45.5185C18.3354 45.5185 18.1064 45.4163 17.8839 45.1928C17.6614 44.9693 17.753 44.6819 17.7988 44.567C17.9035 44.3115 18.126 44.12 18.3092 44.12C18.4924 44.12 18.5383 44.2413 18.6037 44.3562C18.6691 44.4712 18.7084 44.5478 18.8196 44.5478C18.876 44.5465 18.9308 44.5287 18.9767 44.4967C19.0226 44.4762 19.062 44.4441 19.0907 44.4036C19.1195 44.3632 19.1366 44.3159 19.1403 44.2668C19.1599 44.0816 18.9701 43.8901 18.9309 43.8581L18.8131 43.4431L18.9701 43.4047C19.0061 43.4004 19.0395 43.3841 19.0646 43.3584C19.0896 43.3328 19.1048 43.2996 19.1075 43.2642C19.1136 43.2121 19.1045 43.1593 19.0814 43.1119C19.0583 43.0645 19.022 43.0243 18.9767 42.996L18.9047 42.9769C18.8556 42.9809 18.8095 43.0012 18.7738 43.0344C18.7197 43.0866 18.647 43.1163 18.571 43.1174H18.5383C18.4923 43.1087 18.4499 43.0871 18.4162 43.0554C18.3825 43.0237 18.359 42.9831 18.3485 42.9386C18.3262 42.8396 18.3335 42.7365 18.3694 42.6414C18.4054 42.5463 18.4685 42.4633 18.5513 42.4022C18.6323 42.3308 18.7368 42.2901 18.8458 42.2872C18.9567 42.2907 19.0629 42.3313 19.1468 42.4022L19.1795 42.3638C19.1425 42.3268 19.1135 42.2828 19.0944 42.2345C19.0753 42.1862 19.0664 42.1346 19.0683 42.0829C19.0683 42.0126 19.1075 41.9743 19.1861 41.9743C19.2171 41.9742 19.2479 41.9785 19.2777 41.9871L19.3104 41.9998V41.7189L17.3669 32.2359L19.1337 29.011C19.3092 29.0364 19.4864 29.0492 19.6638 29.0493H19.8928L21.6268 32.2486L19.7292 41.5209H19.7357V42.019L19.7685 42.0062C19.7983 41.9983 19.8291 41.9941 19.8601 41.9935C19.9451 41.9935 19.9844 42.0318 19.9844 42.102C19.9858 42.1543 19.9761 42.2062 19.9558 42.2546C19.9355 42.303 19.9051 42.3467 19.8666 42.383L19.8993 42.4213C19.9832 42.3505 20.0895 42.3099 20.2003 42.3064C20.3114 42.3088 20.418 42.3496 20.5013 42.4213C20.583 42.4832 20.6448 42.5666 20.6796 42.6616C20.7144 42.7566 20.7206 42.8594 20.6976 42.9577C20.6884 43.0017 20.6661 43.0421 20.6335 43.0739C20.6009 43.1057 20.5595 43.1275 20.5144 43.1365H20.4752C20.3996 43.1331 20.3278 43.1037 20.2723 43.0535C20.239 43.0208 20.195 43.0005 20.148 42.996C20.1206 42.9964 20.0938 43.003 20.0695 43.0152C20.0252 43.0445 19.9897 43.0848 19.9667 43.132C19.9437 43.1791 19.934 43.2314 19.9386 43.2834C19.9425 43.3183 19.958 43.351 19.9829 43.3764C20.0077 43.4018 20.0405 43.4185 20.076 43.4239L20.2396 43.4622L20.1153 43.8773C20.0825 43.9092 19.8862 44.1008 19.9059 44.286C19.9114 44.3346 19.9292 44.381 19.9578 44.4212C19.9864 44.4613 20.0247 44.4939 20.0695 44.5159C20.1181 44.5474 20.1747 44.5651 20.2331 44.567C20.3377 44.567 20.3901 44.4776 20.449 44.3754C20.5079 44.2732 20.5733 44.1391 20.7369 44.1391C20.9005 44.1391 21.1426 44.3307 21.2473 44.5861C21.2997 44.7011 21.3913 44.9948 21.1688 45.2119C20.9463 45.4291 20.7107 45.5376 20.449 45.5376C20.3274 45.5345 20.2066 45.5174 20.0891 45.4865C19.8797 45.4354 19.8143 45.3844 19.7946 45.3588L19.6834 45.2311L20.0564 46.0485L19.5263 46.9489L18.9898 46.0293Z"
      fill="#9A7D0A"
    />
    <path
      d="M19.1469 29.0365C19.3179 29.062 19.4907 29.0748 19.6638 29.0749L19.8797 29.0621L21.6007 32.255L19.7096 41.489V41.5465H19.7227V42.0509L19.7816 42.0318C19.8092 42.0236 19.8378 42.0193 19.8667 42.019C19.9517 42.019 19.9648 42.0573 19.9648 42.102C19.9653 42.1517 19.9557 42.2009 19.9366 42.247C19.9175 42.293 19.8893 42.3349 19.8536 42.3702L19.9256 42.4405C20.0029 42.3724 20.1028 42.3338 20.2069 42.3319C20.3113 42.3326 20.4117 42.3713 20.4883 42.4405C20.5672 42.4986 20.6272 42.5777 20.6609 42.6684C20.6945 42.7591 20.7005 42.8574 20.6781 42.9513C20.6707 42.9911 20.6511 43.0276 20.6219 43.0562C20.5926 43.0847 20.5552 43.1038 20.5145 43.111H20.4818C20.4111 43.1085 20.3438 43.0813 20.292 43.0344C20.255 42.9984 20.2065 42.9759 20.1546 42.9705C20.1221 42.97 20.0902 42.9789 20.063 42.996C20.0142 43.0279 19.9751 43.072 19.9497 43.1237C19.9244 43.1754 19.9138 43.2327 19.919 43.2898C19.9264 43.3295 19.946 43.3661 19.9752 43.3946C20.0044 43.4231 20.0419 43.4423 20.0826 43.4494L20.2135 43.4814L20.1022 43.8645C20.0499 43.9092 19.8667 44.0944 19.8863 44.2924C19.8948 44.3433 19.9152 44.3916 19.9458 44.4337C19.9764 44.4757 20.0165 44.5104 20.063 44.535C20.1155 44.5693 20.1765 44.5891 20.2396 44.5925C20.364 44.5925 20.4163 44.4903 20.4752 44.3882C20.5341 44.286 20.5995 44.1647 20.7435 44.1647C20.8875 44.1647 21.1296 44.3499 21.2343 44.5925C21.2801 44.7075 21.3651 44.9884 21.1558 45.1992C20.9464 45.4099 20.7108 45.5121 20.4556 45.5121C20.3359 45.5117 20.2169 45.4944 20.1022 45.461C19.8928 45.4099 19.8339 45.3652 19.8209 45.346L19.5918 45.0842L19.7358 45.3971L20.0368 46.0485L19.5329 46.9042L19.0225 46.0293L19.3235 45.378L19.4675 45.0651L19.2385 45.3269C19.2254 45.346 19.1665 45.3907 18.9571 45.4418C18.8448 45.4757 18.7279 45.4929 18.6103 45.4929C18.3485 45.4929 18.1261 45.3908 17.9036 45.18C17.6811 44.9693 17.7792 44.6883 17.8316 44.5734C17.9297 44.3307 18.1391 44.1455 18.3158 44.1455C18.4925 44.1455 18.5252 44.2541 18.5841 44.369C18.643 44.484 18.7019 44.5734 18.8262 44.5734C18.8871 44.5689 18.9457 44.5491 18.9964 44.5159C19.0445 44.4934 19.086 44.4593 19.1169 44.4169C19.1478 44.3744 19.1671 44.325 19.173 44.2732C19.1927 44.0753 19.0094 43.8901 18.9636 43.8454L18.8459 43.4622L18.9833 43.4303C19.0232 43.4228 19.0597 43.4034 19.0878 43.3748C19.1159 43.3462 19.1343 43.3098 19.1403 43.2706C19.147 43.2134 19.1371 43.1555 19.1116 43.1036C19.0861 43.0516 19.0462 43.0077 18.9964 42.9769C18.9711 42.9606 18.9416 42.9517 18.9113 42.9513C18.8573 42.9563 18.8066 42.9788 18.7673 43.0152C18.7155 43.0621 18.6482 43.0893 18.5776 43.0918H18.5448C18.5045 43.0839 18.4675 43.0645 18.4384 43.0361C18.4093 43.0077 18.3894 42.9715 18.3813 42.9322C18.3588 42.8382 18.3648 42.74 18.3985 42.6493C18.4322 42.5586 18.4921 42.4794 18.571 42.4213C18.6477 42.3522 18.748 42.3135 18.8524 42.3128C18.9584 42.3153 19.0601 42.3537 19.1403 42.4213L19.2058 42.3511C19.1371 42.2779 19.0997 42.182 19.1011 42.0829C19.1011 42.0318 19.1207 42.019 19.1272 42.0126L19.1927 41.9999C19.2215 42.0001 19.2502 42.0044 19.2777 42.0126L19.3432 42.0318V41.7189L17.3932 32.2422L19.1469 29.0365ZM19.1207 28.9855L17.3408 32.2295L19.2843 41.7189V41.9679C19.253 41.9559 19.2198 41.9494 19.1861 41.9488C19.1673 41.9469 19.1483 41.949 19.1304 41.955C19.1125 41.961 19.0962 41.9707 19.0825 41.9834C19.0688 41.9962 19.0581 42.0117 19.0511 42.0288C19.0442 42.046 19.0411 42.0644 19.0422 42.0829C19.0405 42.1386 19.0506 42.194 19.072 42.2457C19.0934 42.2973 19.1256 42.3441 19.1665 42.383C19.0781 42.3061 18.9642 42.2631 18.8459 42.2617C18.7301 42.2662 18.6193 42.3089 18.5318 42.383C18.1915 42.6576 18.2831 43.111 18.5318 43.1429H18.571C18.7477 43.1429 18.8066 43.0024 18.9047 43.0024C18.9154 43.0011 18.9262 43.0022 18.9364 43.0055C18.9466 43.0088 18.9559 43.0143 18.9636 43.0216C19.1076 43.1046 19.1469 43.3409 18.9636 43.3856L18.7804 43.4239L18.9113 43.8709C18.9113 43.8709 19.3432 44.2541 18.9636 44.4776C18.9206 44.5057 18.8712 44.5232 18.8197 44.5287C18.6037 44.5287 18.6299 44.1008 18.3093 44.1008C17.9886 44.1008 17.4717 44.8288 17.8643 45.2119C18.1195 45.461 18.3682 45.544 18.6037 45.544C18.7258 45.541 18.8469 45.5217 18.9636 45.4865C19.173 45.4355 19.245 45.3907 19.2712 45.3588L18.9636 46.0293L19.5264 47L20.0826 46.0485L19.775 45.378C19.8012 45.4099 19.8732 45.4546 20.0826 45.5057C20.2015 45.5409 20.3248 45.5602 20.449 45.5632C20.6781 45.5632 20.9267 45.4802 21.1819 45.2311C21.5745 44.848 21.1165 44.12 20.737 44.12C20.3574 44.12 20.4425 44.5478 20.2331 44.5478C20.1796 44.5424 20.128 44.5249 20.0826 44.4967C19.7031 44.2732 20.1349 43.8901 20.1349 43.8901L20.2658 43.4431L20.0826 43.4047C19.8994 43.36 19.9386 43.1238 20.0826 43.0408C20.1011 43.0264 20.1245 43.0195 20.148 43.0216C20.2396 43.0216 20.2985 43.1621 20.4752 43.1621H20.5145C20.7631 43.1302 20.8547 42.6768 20.5145 42.4022C20.4275 42.3272 20.3164 42.2843 20.2004 42.2808C20.0838 42.2814 19.9717 42.3247 19.8863 42.4022C19.9634 42.3205 20.0056 42.2131 20.0041 42.102C20.0051 42.0836 20.0021 42.0652 19.9951 42.048C19.9881 42.0308 19.9774 42.0153 19.9638 42.0026C19.9501 41.9899 19.9337 41.9802 19.9158 41.9742C19.8979 41.9682 19.8789 41.9661 19.8601 41.9679C19.8265 41.9685 19.7932 41.975 19.762 41.9871V41.5018L21.6531 32.2422L19.9059 29.0174H19.6638C19.4821 29.0176 19.3005 29.0048 19.1207 28.9791V28.9855Z"
      fill="black"
    />
    <path
      d="M22.6344 23.3148C22.4156 23.0246 22.1531 22.7684 21.8557 22.5549L22.7849 19.611L31.7497 13.7807L25.8931 22.3506L22.6344 23.3148Z"
      fill="#9A7D0A"
    />
    <path
      d="M31.6647 13.8637L25.8801 22.3314L22.6475 23.2893C22.4331 23.0034 22.1749 22.7514 21.8819 22.5421L22.8046 19.6302L31.6647 13.8637ZM31.8413 13.6913L22.7653 19.5982L21.8296 22.5613C22.1352 22.7818 22.4044 23.0467 22.6279 23.3468L25.9063 22.3697L31.8413 13.6913Z"
      fill="black"
    />
    <path
      d="M13.3557 28.7556L16.8107 27.7274C16.9574 27.9047 17.1218 28.0672 17.3015 28.2128L16.1302 31.9102L7.25049 37.6894L13.3557 28.7556Z"
      fill="#9A7D0A"
    />
    <path
      d="M16.8042 27.7594C16.9478 27.9272 17.1054 28.0831 17.2754 28.2255L16.1106 31.891L7.33561 37.6064L13.3688 28.7747L16.8042 27.7594ZM16.8173 27.7019L13.3427 28.7364L7.15894 37.7788L16.1564 31.923L17.3343 28.2064C17.146 28.0546 16.9729 27.8856 16.8173 27.7019Z"
      fill="black"
    />
    <path
      d="M23.2888 26.0991C23.3333 25.8847 23.3552 25.6664 23.3543 25.4477C23.3543 25.3264 23.3477 25.1986 23.3346 25.0709L26.1091 23.6469L36.5397 25.6776V25.652C36.5462 25.1795 36.8472 24.8027 37.2006 24.8027C37.5539 24.8027 37.7044 25.0071 37.8091 25.3264V25.3391H37.8222C38.6663 25.5307 38.9673 25.6712 38.9739 25.7351C38.9804 25.7989 38.6598 25.9394 37.7764 26.1118H37.7633V26.1246C37.639 26.38 37.4296 26.5333 37.2006 26.5333C36.9715 26.5333 36.5985 26.2268 36.5462 25.8117V25.7861L26.4756 27.753L23.2888 26.0991Z"
      fill="#9A7D0A"
    />
    <path
      d="M26.1092 23.6724L36.507 25.6967L36.5593 25.7095V25.652C36.5659 25.1923 36.8538 24.8283 37.1941 24.8283C37.5343 24.8283 37.6783 25.0262 37.7765 25.3328L37.7895 25.3583H37.8157C38.6664 25.5499 38.9281 25.6776 38.9478 25.7287C38.9674 25.7798 38.6533 25.9075 37.7699 26.0863H37.7437V26.1054C37.6259 26.3545 37.4231 26.5078 37.2006 26.5078C36.9781 26.5078 36.6248 26.2076 36.5724 25.7989V25.7478L36.5201 25.7606L26.4756 27.7275L23.3216 26.0863C23.3604 25.8755 23.3801 25.6618 23.3805 25.4477C23.3805 25.3328 23.3739 25.2114 23.3608 25.0837L26.1092 23.6724ZM26.1026 23.6213L23.3085 25.0582C23.3217 25.1876 23.3283 25.3176 23.3281 25.4477C23.3294 25.6707 23.3075 25.8932 23.2627 26.1118L26.4691 27.7785L36.5266 25.8181C36.579 26.2395 36.8603 26.5652 37.2006 26.5652C37.5409 26.5652 37.6652 26.3928 37.783 26.1374C38.2214 26.0544 39.0001 25.8756 39.0001 25.7351C39.0001 25.5946 38.2738 25.4158 37.8288 25.32C37.7241 25.0007 37.482 24.7772 37.2006 24.7772C36.9192 24.7772 36.5201 25.1667 36.5135 25.652L26.1026 23.6213Z"
      fill="black"
    />
    <path
      d="M2.59801 25.8181V25.8436C2.52603 26.2076 2.23811 26.4758 1.90439 26.4758C1.57066 26.4758 1.37435 26.2906 1.26311 25.9969V25.9841H1.24348C0.0590853 25.7542 0.0263672 25.6329 0.0263672 25.6201C0.0263672 25.6073 0.0590854 25.4924 1.28929 25.2753H1.30237V25.2625C1.43325 25.0262 1.65573 24.8857 1.89784 24.8857C2.26429 24.8857 2.57184 25.2114 2.59801 25.6201V25.652L12.9697 23.6277L15.9863 25.205C15.9797 25.2944 15.9732 25.3711 15.9732 25.4477C15.9735 25.6123 15.9866 25.7767 16.0124 25.9394L12.492 27.7466L2.59801 25.8181Z"
      fill="#9A7D0A"
    />
    <path
      d="M12.9631 23.6533L15.9601 25.2178C15.9536 25.3008 15.9536 25.3774 15.9536 25.4477C15.9527 25.6056 15.9614 25.7634 15.9797 25.9202L12.492 27.7211L2.63073 25.7989H2.57838V25.8436C2.51295 26.2012 2.23157 26.463 1.91093 26.463C1.5903 26.463 1.40053 26.2779 1.28929 25.9969V25.9713H1.26312C0.235766 25.7606 0.0787195 25.652 0.052545 25.6201C0.0263705 25.5882 0.24231 25.486 1.29583 25.3008H1.32201V25.2817C1.37406 25.1749 1.45546 25.0844 1.55713 25.0201C1.65879 24.9558 1.77675 24.9204 1.89785 24.9177C2.2512 24.9177 2.55221 25.2306 2.57838 25.6329V25.684H2.63073L12.9566 23.666M12.9631 23.6149L2.62419 25.6329C2.59801 25.2114 2.28392 24.873 1.89785 24.873C1.76774 24.8766 1.64126 24.9156 1.53261 24.9856C1.42396 25.0555 1.33743 25.1536 1.28275 25.2689C0.824693 25.3455 -0.00634766 25.5115 -0.00634766 25.6393C-0.00634766 25.767 0.7658 25.9266 1.2304 26.016C1.34164 26.3098 1.60338 26.5141 1.89785 26.5141C2.19231 26.5141 2.55221 26.2204 2.61765 25.8436L12.4985 27.7721L16.0386 25.9522C16.0123 25.7852 15.9992 25.6166 15.9994 25.4477C15.9994 25.3583 16.0059 25.2753 16.0124 25.1859L12.9697 23.6022L12.9631 23.6149Z"
      fill="black"
    />
    <path
      d="M17.4258 18.966L19.3758 9.43193L18.8785 8.56345L19.3823 8.15475C19.421 8.12442 19.4514 8.08523 19.4708 8.04067C19.4902 7.9961 19.498 7.94755 19.4936 7.89932C19.4886 7.87061 19.4745 7.84413 19.4534 7.82353C19.4323 7.80294 19.4052 7.78926 19.3758 7.78437H19.3234C19.2944 7.78607 19.2662 7.79449 19.2412 7.80892C19.2162 7.82336 19.195 7.8434 19.1795 7.86739C19.1575 7.89954 19.1271 7.92536 19.0914 7.9422C19.0557 7.95904 19.0161 7.96628 18.9766 7.96318C18.7083 7.96318 18.4073 7.96318 18.283 7.53533C18.2437 7.42038 18.2437 7.33736 18.283 7.28628C18.3008 7.26903 18.3225 7.25603 18.3464 7.24827C18.3702 7.24052 18.3955 7.23823 18.4204 7.24158C18.5 7.24233 18.5792 7.25306 18.656 7.27351L18.7149 7.28628H18.7869C18.8315 7.28712 18.876 7.27937 18.9176 7.26346C18.9592 7.24755 18.9972 7.22379 19.0294 7.19355C19.0616 7.16331 19.0874 7.12717 19.1053 7.0872C19.1232 7.04723 19.1328 7.00421 19.1337 6.9606C19.1337 6.79456 19.0355 6.75625 18.9374 6.71793L18.8588 6.686C18.7738 6.6413 18.7738 6.30924 18.7869 6.09212H19.1991V6.06658C19.1991 6.03465 19.1926 5.27473 18.8457 5.27473C18.6822 5.27473 18.6364 5.38329 18.5905 5.48546C18.5447 5.58764 18.4858 5.72174 18.2568 5.72174C18.232 5.72373 18.2072 5.71878 18.1851 5.70747C18.1631 5.69616 18.1449 5.67896 18.1325 5.65788C18.1038 5.60032 18.0903 5.53665 18.0932 5.47269C18.0932 5.09592 18.4073 4.43179 18.7149 4.43179C18.8426 4.43239 18.9681 4.465 19.0792 4.5265C19.1904 4.588 19.2835 4.67633 19.3496 4.78302L19.3954 4.86603V4.35516L18.5447 3.37812L19.3889 0.0255432H19.6114L20.4555 3.37812L19.6048 4.35516V4.86603L19.6506 4.78302C19.7167 4.67633 19.8098 4.588 19.921 4.5265C20.0321 4.465 20.1576 4.43239 20.2853 4.43179C20.5929 4.43179 20.907 5.09592 20.907 5.47269C20.91 5.53665 20.8965 5.60032 20.8677 5.65788C20.8554 5.67896 20.8371 5.69616 20.8151 5.70747C20.7931 5.71878 20.7682 5.72373 20.7434 5.72174C20.5144 5.72174 20.462 5.60679 20.4097 5.48546C20.3573 5.36413 20.3181 5.27473 20.1545 5.27473C19.8077 5.27473 19.8011 6.03465 19.8011 6.06658V6.09212H20.2134C20.2265 6.30924 20.2265 6.6413 20.1414 6.686L20.0629 6.71793C19.9647 6.75625 19.8666 6.79456 19.8666 6.9606C19.8663 7.00396 19.8756 7.04688 19.8936 7.08651C19.9117 7.12614 19.9381 7.16158 19.9713 7.19049C20.0029 7.22153 20.0407 7.24601 20.0823 7.26246C20.1239 7.27892 20.1685 7.28702 20.2134 7.28628H20.2853L20.3442 7.27351C20.421 7.25306 20.5002 7.24233 20.5798 7.24158C20.6047 7.23823 20.63 7.24052 20.6539 7.24827C20.6777 7.25603 20.6994 7.26903 20.7172 7.28628C20.7565 7.33736 20.7565 7.42038 20.7172 7.53533C20.5929 7.96318 20.2919 7.96318 20.0236 7.96318C19.9841 7.96628 19.9445 7.95904 19.9088 7.9422C19.8732 7.92536 19.8428 7.89954 19.8207 7.86739C19.8052 7.8434 19.7841 7.82336 19.759 7.80892C19.734 7.79449 19.7058 7.78607 19.6768 7.78437H19.6244C19.595 7.78926 19.5679 7.80294 19.5468 7.82353C19.5257 7.84413 19.5117 7.87061 19.5067 7.89932C19.5022 7.94755 19.51 7.9961 19.5294 8.04067C19.5488 8.08523 19.5792 8.12442 19.6179 8.15475L20.1218 8.56345L19.6244 9.43193L21.5941 19.0554L20.0563 21.8716C19.9263 21.8538 19.795 21.8452 19.6637 21.8461C19.4464 21.8462 19.2296 21.8654 19.0159 21.9035L17.4258 18.966Z"
      fill="#9A7D0A"
    />
    <path
      d="M19.5918 0.051087L20.4294 3.37174L19.5918 4.33601V4.96821L19.6834 4.79579C19.7449 4.69175 19.8337 4.60557 19.9407 4.54609C20.0476 4.48661 20.1689 4.45598 20.2919 4.45734C20.5668 4.45734 20.8874 5.07677 20.8874 5.47269C20.8925 5.53199 20.8812 5.59154 20.8547 5.64511C20.8441 5.66297 20.8288 5.67774 20.8104 5.68785C20.792 5.69796 20.7711 5.70305 20.75 5.70258C20.5341 5.70258 20.4882 5.59402 20.4424 5.47908C20.3966 5.36413 20.3443 5.25557 20.1611 5.25557C19.7946 5.25557 19.7881 5.98356 19.7881 6.06658V6.11766H20.1938C20.2134 6.38587 20.1872 6.63492 20.1414 6.66046L20.0629 6.69239C19.9648 6.73071 19.8535 6.77541 19.8535 6.9606C19.8552 7.05433 19.8946 7.14366 19.9631 7.20935C20.0317 7.27504 20.1239 7.31184 20.22 7.31182H20.2985L20.3574 7.29905C20.4318 7.27704 20.5087 7.26417 20.5864 7.26073C20.6453 7.26073 20.6846 7.27351 20.7042 7.30544C20.7238 7.33737 20.7369 7.42038 20.7042 7.52894C20.5799 7.94402 20.2919 7.94402 20.0302 7.94402C19.9941 7.94779 19.9576 7.94137 19.9252 7.92552C19.8927 7.90967 19.8655 7.88507 19.847 7.85462C19.8295 7.82759 19.8054 7.80524 19.7768 7.78963C19.7482 7.77401 19.7161 7.76562 19.6834 7.76522H19.6245C19.5766 7.77498 19.5344 7.80244 19.5067 7.84185C19.479 7.80244 19.4368 7.77498 19.3889 7.76522H19.33C19.2973 7.76562 19.2652 7.77401 19.2366 7.78963C19.208 7.80524 19.1839 7.82759 19.1664 7.85462C19.1479 7.88507 19.1207 7.90967 19.0882 7.92552C19.0558 7.94137 19.0193 7.94779 18.9832 7.94402C18.7215 7.94402 18.4336 7.94402 18.3092 7.52894C18.2765 7.42038 18.2765 7.34375 18.3092 7.30544C18.3419 7.26712 18.3681 7.26073 18.427 7.26073C18.5047 7.26417 18.5816 7.27704 18.656 7.29905L18.7149 7.31182H18.7935C18.8901 7.31188 18.9831 7.27529 19.0527 7.20976C19.1223 7.14424 19.163 7.05491 19.1664 6.9606C19.1664 6.77541 19.0487 6.73071 18.9505 6.69239L18.872 6.66046C18.8262 6.63492 18.8 6.38587 18.8196 6.11766H19.2319V6.06658C19.2319 5.98356 19.2188 5.25557 18.8523 5.25557C18.6691 5.25557 18.6168 5.37052 18.571 5.47908C18.5252 5.58764 18.4794 5.70258 18.2634 5.70258C18.2423 5.70305 18.2214 5.69796 18.203 5.68785C18.1846 5.67774 18.1693 5.66297 18.1587 5.64511C18.1322 5.59154 18.1209 5.53199 18.126 5.47269C18.126 5.07677 18.4466 4.45734 18.7215 4.45734C18.8443 4.45728 18.965 4.48846 19.0717 4.54781C19.1785 4.60716 19.2675 4.69263 19.33 4.79579L19.4282 4.96821V4.34878L19.4151 4.33601L18.571 3.37174L19.4086 0.051087H19.5918ZM19.5002 8.03343C19.5211 8.0888 19.5573 8.13743 19.6049 8.17391C19.6507 8.19946 19.9124 8.41658 20.0891 8.56984L19.6049 9.41277V9.45109L21.5679 19.0554L20.0433 21.8461L19.6638 21.8269C19.451 21.8249 19.2385 21.842 19.029 21.878L17.452 18.9596L19.3955 9.45109V9.41277L18.9112 8.56984C19.0879 8.41658 19.3497 8.19946 19.3955 8.17391C19.443 8.13743 19.4792 8.0888 19.5002 8.03343ZM19.631 0H19.3693L18.5186 3.38451L19.3693 4.36794V4.77025C19.3021 4.65925 19.2064 4.56729 19.0916 4.50345C18.9769 4.43962 18.847 4.40611 18.7149 4.40625C18.2569 4.40625 17.7988 5.74728 18.2569 5.74728C18.7149 5.74728 18.5186 5.30027 18.8458 5.30027C19.173 5.30027 19.173 6.06658 19.173 6.06658H18.7673C18.7673 6.06658 18.7149 6.6413 18.8458 6.70516C18.9767 6.76902 19.1075 6.76902 19.1075 6.9606C19.1067 7.00085 19.0977 7.04055 19.0811 7.07742C19.0646 7.1143 19.0407 7.14762 19.0109 7.17549C18.9812 7.20336 18.9461 7.22524 18.9076 7.23986C18.8692 7.25449 18.8282 7.26158 18.7869 7.26073H18.7215C18.6224 7.23866 18.5218 7.22372 18.4205 7.21603C18.283 7.21603 18.1783 7.27989 18.2569 7.54171C18.3877 7.98872 18.7149 7.98872 18.9767 7.98872C19.2384 7.98872 19.1795 7.80992 19.3235 7.80992H19.3693C19.5656 7.85462 19.4347 8.09728 19.3693 8.1356C19.3039 8.17391 18.8458 8.55707 18.8458 8.55707L19.3497 9.43832L17.3997 18.966L19.0028 21.9291C19.2209 21.8904 19.4421 21.8711 19.6638 21.8716C19.7994 21.8704 19.9351 21.8789 20.0695 21.8971L21.6203 19.0618L19.6507 9.43832L20.1545 8.55707C20.1545 8.55707 19.6965 8.17391 19.631 8.1356C19.5656 8.09728 19.4347 7.85462 19.631 7.80992H19.6768C19.8208 7.80992 19.7881 7.98872 20.0237 7.98872C20.2592 7.98872 20.6126 7.98872 20.7435 7.54171C20.822 7.27989 20.7173 7.21603 20.5799 7.21603C20.4785 7.22372 20.3779 7.23866 20.2789 7.26073H20.2134C20.1722 7.26158 20.1312 7.25449 20.0927 7.23986C20.0543 7.22524 20.0192 7.20336 19.9894 7.17549C19.9596 7.14762 19.9358 7.1143 19.9192 7.07742C19.9026 7.04055 19.8936 7.00085 19.8928 6.9606C19.8928 6.76902 20.0237 6.76902 20.1545 6.70516C20.2854 6.6413 20.233 6.06658 20.233 6.06658H19.8273C19.8273 6.06658 19.8273 5.30027 20.1545 5.30027C20.4817 5.30027 20.2854 5.74728 20.7435 5.74728C21.2015 5.74728 20.7435 4.40625 20.2854 4.40625C20.1533 4.40611 20.0235 4.43962 19.9087 4.50345C19.7939 4.56729 19.6982 4.65925 19.631 4.77025V4.36794L20.4817 3.38451L19.631 0Z"
      fill="black"
    />
    <path
      d="M13.0678 22.2931L7.25049 13.7807L16.3003 19.6685L17.2491 22.7273C17.0234 22.9187 16.8214 23.1352 16.6471 23.3723L13.0678 22.2931Z"
      fill="#9A7D0A"
    />
    <path
      d="M7.33561 13.8637L16.2742 19.6813L17.223 22.7209C17.0022 22.9043 16.8064 23.1146 16.6406 23.3468L13.0809 22.2739L7.33561 13.8637ZM7.15894 13.6913L13.0547 22.3122L16.6603 23.4042C16.837 23.1575 17.0435 22.9323 17.2754 22.7337L16.32 19.6557L7.15894 13.6913Z"
      fill="black"
    />
    <path
      d="M17.118 28.7683L17.0983 28.7492C16.8087 28.5411 16.5509 28.2938 16.3327 28.0148L16.3131 27.9956L6.1901 31.1375L15.5213 26.182V26.1565C15.4898 25.9708 15.4745 25.7828 15.4755 25.5945C15.477 25.4302 15.488 25.266 15.5082 25.1028V25.0837L6.07886 20.3198L16.2607 23.2509L16.2804 23.2318C16.4936 22.9491 16.747 22.6976 17.0329 22.4846L17.0525 22.4655L13.8331 12.5865L18.9109 21.6928H18.9371C19.1296 21.6618 19.3244 21.6468 19.5195 21.6481C19.6857 21.6498 19.8517 21.6604 20.0168 21.68H20.0364L24.9179 12.478L21.9144 22.4144L21.9341 22.4335C22.2237 22.6416 22.4815 22.8889 22.6997 23.1679L22.7193 23.1871L32.8423 20.0452L23.5111 25.0007V25.0262C23.5428 25.214 23.5581 25.4042 23.5569 25.5945C23.5551 25.7568 23.5442 25.9188 23.5242 26.0799V26.099L32.9535 30.8629L22.7716 27.9318L22.752 27.9509C22.5388 28.2336 22.2854 28.4851 21.9995 28.6981L21.9799 28.7172L25.1993 38.5962L20.1215 29.4899H20.0953C19.905 29.5207 19.7124 29.5356 19.5195 29.5346C19.351 29.5331 19.1828 29.5225 19.0156 29.5027H18.996L14.1144 38.7047L17.118 28.7683ZM19.5195 22.2675C18.8449 22.2662 18.1851 22.4603 17.6236 22.8251C17.0621 23.1899 16.6241 23.7091 16.3651 24.3169C16.106 24.9247 16.0376 25.5939 16.1684 26.2397C16.2992 26.8855 16.6234 27.4789 17.0999 27.9448C17.5764 28.4108 18.1839 28.7283 18.8454 28.8572C19.5069 28.9861 20.1927 28.9206 20.8161 28.6689C21.4394 28.4173 21.9722 27.9909 22.3471 27.4436C22.722 26.8963 22.9221 26.2528 22.9221 25.5945C22.9221 24.7133 22.5639 23.868 21.9259 23.2442C21.288 22.6205 20.4225 22.2692 19.5195 22.2675Z"
      fill="#E0DFCD"
    />
    <path
      d="M24.7937 12.7909L21.8883 22.3888L21.8752 22.4272L21.9145 22.4591C22.201 22.6684 22.4583 22.9131 22.6801 23.1871L22.7063 23.2254L22.7455 23.2126L32.5217 20.1793L23.5177 24.9624L23.4719 24.9815V25.0262C23.5034 25.2141 23.5187 25.4042 23.5177 25.5946C23.5161 25.7547 23.5052 25.9146 23.485 26.0735V26.1182L23.5242 26.1374L32.633 30.7416L22.7979 27.9062L22.7586 27.8935L22.7259 27.9318C22.5115 28.2113 22.2607 28.4625 21.9799 28.6789L21.9407 28.7045L21.9538 28.7428L25.062 38.2833L20.1608 29.4963L20.1412 29.4516H20.0954C19.905 29.4821 19.7124 29.4971 19.5195 29.4963C19.3533 29.495 19.1872 29.4844 19.0222 29.4644H18.9764L18.9568 29.5027L14.2388 38.3918L17.1442 28.7939L17.1573 28.7556L17.118 28.7236C16.8316 28.5144 16.5742 28.2697 16.3524 27.9956L16.3263 27.9573L16.287 27.9701L6.51082 31.0034L15.5148 26.2204L15.5606 26.2012V26.1565C15.5294 25.9708 15.5141 25.7828 15.5148 25.5946C15.5162 25.4323 15.5271 25.2703 15.5476 25.1092V25.0645L15.5083 25.0454L6.39958 20.4412L16.2346 23.2765L16.2739 23.2893L16.3066 23.2509C16.5211 22.9714 16.7718 22.7202 17.0526 22.5038L17.0919 22.4782L17.0788 22.4399L13.9705 12.8994L18.8717 21.6864L18.8914 21.7311H18.9372C19.1297 21.7004 19.3245 21.6854 19.5195 21.6864C19.6836 21.6879 19.8475 21.6986 20.0103 21.7183H20.0561L20.0757 21.68L24.7937 12.7909ZM19.5195 28.9471C20.2006 28.9471 20.8663 28.75 21.4325 28.3806C21.9986 28.0112 22.4398 27.4863 22.7001 26.8721C22.9604 26.258 23.0282 25.5823 22.8949 24.9305C22.7615 24.2788 22.4331 23.6803 21.951 23.2108C21.469 22.7413 20.8551 22.4219 20.187 22.293C19.5189 22.1641 18.8266 22.2315 18.1978 22.4867C17.569 22.7419 17.0319 23.1735 16.6545 23.7267C16.2771 24.2799 16.0763 24.9299 16.0776 25.5946C16.0793 26.4843 16.4427 27.337 17.088 27.9656C17.7333 28.5941 18.6078 28.9471 19.5195 28.9471ZM25.0489 12.1651L20.0169 21.6481C19.8519 21.6277 19.6858 21.617 19.5195 21.6162C19.3223 21.6147 19.1253 21.6296 18.9306 21.6609L13.7023 12.28L17.0133 22.4591C16.7268 22.6759 16.4715 22.9293 16.2543 23.2126L5.7583 20.1921L15.4756 25.1028C15.4545 25.2659 15.4436 25.4302 15.4429 25.5946C15.4416 25.7849 15.4569 25.9751 15.4887 26.1629L5.87609 31.2652L16.3066 28.034C16.5288 28.3136 16.7885 28.5627 17.0788 28.7747L13.9836 39.0177L19.0157 29.5346C19.1828 29.5552 19.3511 29.5659 19.5195 29.5666C19.7146 29.5678 19.9094 29.5528 20.1019 29.5219L25.3303 38.9027L22.0192 28.7236C22.3057 28.5069 22.5611 28.2534 22.7783 27.9701L33.2742 30.9906L23.557 26.0799C23.5778 25.9189 23.5888 25.7568 23.5897 25.5946C23.5912 25.4021 23.5759 25.2098 23.5439 25.0198L33.1565 19.9175L22.7259 23.1488C22.5038 22.8691 22.2441 22.62 21.9538 22.408L25.0489 12.1651ZM19.5195 28.8833C18.8512 28.8845 18.1975 28.6922 17.6412 28.3306C17.0849 27.969 16.6511 27.4545 16.3948 26.8521C16.1384 26.2497 16.071 25.5867 16.2011 24.9469C16.3311 24.3071 16.6528 23.7194 17.1255 23.2582C17.5981 22.797 18.2003 22.483 18.8559 22.3561C19.5115 22.2291 20.1909 22.2949 20.8082 22.5451C21.4254 22.7953 21.9527 23.2186 22.3232 23.7615C22.6937 24.3043 22.8908 24.9423 22.8895 25.5946C22.8878 26.4663 22.5322 27.3018 21.9006 27.9182C21.2689 28.5346 20.4128 28.8816 19.5195 28.8833Z"
      fill="black"
    />
  </g>
  <defs>
    <clipPath id="clip0_21_2">
      <rect width="39" height="47" fill="white" />
    </clipPath>
  </defs>
</svg>
