<svg
  width="85"
  height="85"
  viewBox="0 0 85 85"
  fill="none"
  xmlns="http://www.w3.org/2000/svg"
>
  <path
    d="M-3.71547e-06 42.5C-5.76746e-06 19.0279 19.0279 5.76746e-06 42.5 3.71547e-06C65.9721 1.66347e-06 85 19.0279 85 42.5C85 65.9721 65.9721 85 42.5 85C19.0279 85 -1.66347e-06 65.9721 -3.71547e-06 42.5Z"
    fill="#1E1E24"
  />
  <path
    d="M37.4563 32.5812C37.2825 32.7547 37.1446 32.9607 37.0505 33.1875C36.9564 33.4144 36.908 33.6575 36.908 33.9031C36.908 34.1486 36.9564 34.3918 37.0505 34.6186C37.1446 34.8454 37.2825 35.0515 37.4563 35.2249L44.7313 42.4999L37.4563 49.7749C37.1057 50.1255 36.9088 50.601 36.9088 51.0968C36.9088 51.5926 37.1057 52.0681 37.4563 52.4187C37.8069 52.7693 38.2824 52.9662 38.7782 52.9662C39.274 52.9662 39.7495 52.7693 40.1 52.4187L48.7063 43.8124C48.8801 43.639 49.018 43.4329 49.1121 43.2061C49.2062 42.9793 49.2546 42.7361 49.2546 42.4906C49.2546 42.245 49.2062 42.0019 49.1121 41.775C49.018 41.5482 48.8801 41.3422 48.7063 41.1687L40.1 32.5624C39.3875 31.8499 38.1875 31.8499 37.4563 32.5812Z"
    fill="#FFF8F0"
  />
</svg>
